<svg xmlns="http://www.w3.org/2000/svg" viewBox="0 0 400 400">
  <path fill="#010101" d="M151 28h14a13913 13913 0 0 1 88 0c60 0 60 0 88 14v2l3 1c6 4 14 9 16 17v2h2c14 21 13 49 13 73a9749 9749 0 0 0 0 116c0 66 0 66-11 87h-2v2h-2l-1 3c-1 4-4 8-8 11h-2v2a75 75 0 0 1-42 18l-4 1c-17 2-35 1-53 1h-14a13915 13915 0 0 1-87 0c-49 0-49 0-67-4l-3-1c-5-1-9-2-13-5l-3-1v-2l-2-1-8-5-2-2-2-1v-2h-2v-2l-3-1v-3l-3-1c-3-4-3-4-3-7l-2-1-2-6-2-3-1-3-1-2a49 49 0 0 1-3-17 383 383 0 0 1-2-64 26363 26363 0 0 1 1-139v-3c1-10 3-19 7-28l2-6h2l1-3 3-6h2v-2c1-3 3-4 6-6h2v-3l2-1 4-3 4-1v-2c14-8 14-8 22-9l4-1c21-5 43-3 64-3Z"/>
  <path fill="#FCEDDB" d="M209 188c11 9 20 23 22 37v14c0 18-7 32-19 45a66 66 0 0 1-49 17 62 62 0 0 1-56-42l-1-2c-5-14-3-33 2-46a72 72 0 0 1 17-22c24-23 59-20 84-1Z"/>
  <path fill="#FCDDD1" d="M247 144h44v156h-44V144Z"/>
  <path fill="#FBFBFB" d="M128 100h119v44H128v-44Z"/>
  <path fill="#3F3F3F" d="M343 46c6 1 10 6 15 11l2 7h2c14 21 13 49 13 73a9749 9749 0 0 0 0 116c0 66 0 66-11 87h-2v2h-2l-1 3c-1 4-4 8-8 11h-2v2c-5 5-11 8-17 11l-2 1h-5l3-2 1-2c1-4 3-4 6-6l7-5 4-1 1-2 3-4 6-9 4-5 3-6 1-2 2-10 1-3 1-9h2v-15a209 209 0 0 0 2-40v-8l-1-4c-2-3-1-7-1-10v-3a956 956 0 0 1 0-18v-2l1-14v-6l-1-19a1170 1170 0 0 0 0-33v-15l-1-8h2v-2c-3-9-3-18-3-27h-2l-1-5-3-1-5-8-3-3v-2l-1-3-5-2v-2h-2l-1-3-2-5Z"/>
  <path fill="#0D0D0D" d="M151 28h14a13913 13913 0 0 1 88 0c60 0 60 0 82 11h-7l-2-1-2-1v-2h-7l-5-2-21-2h-3c-6 0-11 0-17 2h-14a1368 1368 0 0 0-9 0l-5 1v-2l-2 1h-12c-3 0-5 1-7 3v1h-29v-5l-2 1h-13l-4 1v-2a167 167 0 0 0-25 1l-6 1v-2l-2 1h-13l-4 1v-2l-9-1h-8l-4 1h-6l-13 3h-4v2l-13 2c3-3 5-4 9-5l3-1c23-7 48-5 72-5Z"/>
  <path fill="#505050" d="m67 367 8 1 1 3h7v2l25 1 4-1 12-1h2l1 1h7l4-1 10 2 6-1 1 1h8l2-1 9-1h2l1 1h7l4-1 10 2 6-1 1 1h8l2-1 9-1h2l1 1h7l4-1 10 2 6-1 1 1h8l2-1 9-1h2l1 1c8 1 17 0 25-1l23-1c-19 13-56 7-79 7h-13a13138 13138 0 0 1-85 0c-48 0-48 0-66-4l-3-1h-3l-3-1-6-5Z"/>
  <path fill="#323232" d="M67 39v2h-3l-1 2-4 4-5 5c-1 3-1 3-4 4h-2v2l-2 1-1 3h-4v5l-2 1-1 3h-2c-2 7-3 12-3 19 0 5 0 9-2 14v5l-1 8 2 1h-2l1 2v2l-1 1v19l-1 4 1 8-1 9 2 9-1 1v7a1182 1182 0 0 0-1 20c-3 11-2 22-2 33a23636 23636 0 0 1 0 22c-1 33-1 33 5 65a859174279 859174279 0 0 0 7 19l3 1 2 4 1 2v5l-1-3-3-1c-3-4-3-4-3-7l-2-1-2-6-2-3-1-3-1-2c-2-5-3-9-3-15v-2a383 383 0 0 1-2-64 26363 26363 0 0 1 1-139v-3c1-10 3-19 7-28l2-6h2l1-3 3-6h2v-2c1-3 3-4 6-6h2v-3l2-1 4-3 4-1v-2l6-2Z"/>
  <path fill="#636363" d="M343 46c6 1 10 6 15 11l2 7h2c14 21 13 49 13 74a9269 9269 0 0 0 0 18v13a31771 31771 0 0 1 0 116h-1l-1-104-2-1a2182998299 2182998299 0 0 1 1-31v-8l-1-4-1-7v-5a1109 1109 0 0 0-1-16h2v-2c-3-9-3-18-3-27h-2l-1-5-3-1-5-8-3-3v-2l-1-3-5-2v-2h-2l-1-3-2-5Z"/>
  <path fill="#282828" d="M325 371c-17 11-49 7-68 7h-21l-6-1h-6l-5-1c-6 0-6 0-8-2a1509 1509 0 0 1 15-2l1 1h7l4-1 10 2 6-1 1 1h8l2-1 9-1h2l1 1c8 1 16 0 24-1l24-1Z"/>
  <path fill="#2A2A2A" d="M28 198c2 3 2 5 2 8v3l-1 5 2 8-1 1v19l-1 4 1 8-1 9 2 9-1 1v8l1 5v10l2 20h-3l-1-7-1-2c-2-12-2-25-2-38a10942 10942 0 0 0 0-37c0-24 0-24 2-34Z"/>
  <path fill="#7C7C7C" d="M25 121h1v2a55258 55258 0 0 0 1 129 224 224 0 0 0 6 70c1 4 2 8 5 11l1 6 3 1 2 4 1 2v5l-1-3-3-1c-3-4-3-4-3-7l-2-1a88 88 0 0 1-4-9l-1-3-1-2c-2-5-3-9-3-15v-2a379 379 0 0 1-2-57v-14a32243 32243 0 0 1 0-116Z"/>
  <path fill="#2D2D2D" d="m370 317 2 2c-2 7-4 14-8 21h-2v2h-2l-1 3c-1 4-4 8-8 11h-2v2c-5 5-11 8-17 11l-2 1h-5l3-2 1-2c1-4 3-4 6-6l7-5 4-1 1-2 3-4 6-9c2-3 4-4 7-5l2-5v-2l1-2h2v-2l2-6Z"/>
  <path fill="#4D4D4D" d="M150 28h38v2a312745540 312745540 0 0 1-41 1h-3l-7 2h-6l-7 1v-2l-9-1h-8l-4 1h-6l-13 3h-4v2l-13 2c3-3 5-4 9-5l3-1c23-6 47-5 71-5Z"/>
  <path fill="#383838" d="m371 139 2 1-1 33v5l1 3v-14h1a9861 9861 0 0 1-1 70l-2 1a159 159 0 0 1-1-29l1-17-1-10v-17a1181 1181 0 0 0 1-26Z"/>
  <path fill="#0C0C0C" d="m175 33 1-1h17l1 3-1 2h-50c2-4 2-4 5-5h5l22 1Z"/>
  <path fill="#6C6C6C" d="M67 39v2h-3l-1 2-4 4-5 5c-1 3-1 3-4 4h-2v2l-2 1-1 3h-4v5l-2 1-1 3h-2l-6 22v4l-3 21h-1c-1-16 1-34 9-49l2-1 2-6 2-3h2v-2c1-3 3-4 6-6h2v-3l2-1 4-3 4-1v-2l6-2Z"/>
  <path fill="#646464" d="M240 28a4289 4289 0 0 1 25 0c24 0 48 0 70 11h-7l-2-1-2-1v-2h-7l-5-2-23-2a9569 9569 0 0 1-16 0h-11l-23-1 1-2Z"/>
  <path fill="#0B0B0B" d="M235 32h2a1026 1026 0 0 1 12 0h8l6 2 3 1v2h-44v-3c4-3 8-2 13-2Z"/>
  <path fill="#242424" d="M291 30h3c18 1 18 1 21 4l7 1h2l1 2 7 2 9 3v2l3 1-4 1-7-1-1-4-2 1h-2l-2-2c-3-2-6-2-10-3l-4-1-13-2-4-1-7 1h-14v-2l-2-1 19-1Z"/>
  <path fill="#5C5C5C" d="M325 371c-22 14-65 7-90 7v-1h13l4-1 15-1h11l30-3 17-1Z"/>
  <path fill="#4F4F4F" d="M190 28h48v2a1241 1241 0 0 1-22 2c-9 1-18 0-27-2l1-2Z"/>
  <path fill="#222" d="m188 28 1 2 6 1c6 0 6 0 8 2h-3l-7 1v-2l-2 1h-13l-4 1v-2a167 167 0 0 0-25 1l-6 1v-2l-5 1 3-3 7-1h2a449 449 0 0 1 38 1v-2Z"/>
  <path fill="#4D4D4D" d="M26 285h1v2c1 11 2 22 5 33l1 2c1 4 2 8 5 11l1 6 3 1 2 4 1 2v5l-1-3-3-1c-3-4-3-4-3-7l-2-1a88 88 0 0 1-4-9l-1-3-1-2c-2-5-3-9-3-14v-3l-1-23Z"/>
  <path fill="#1F1F1F" d="m31 87 2 1v6l-1 4-1 6v5l-1 8 2 1h-2l1 2v2l-1 1a75 75 0 0 0 0 7v12c0 2-1 3-3 5v-17l1-17v-8l3-18Z"/>
  <path fill="#636363" d="m370 317 2 2c-2 7-4 14-8 21h-2v2h-2l-1 3c-1 4-4 8-8 11h-2v2h-2l4-9h3l1-3 4-7h2v-4l2-1 2-5v-2l1-2h2v-2l2-6Z"/>
  <path fill="#6D6D6D" d="M138 28v2a1052075584 1052075584 0 0 0-26 1h-2l-7 1h-6l-13 3h-4v2l-13 2c3-3 5-4 9-5l3-1 24-4h3l32-1Z"/>
  <path fill="#212121" d="m238 28 1 2h32v2l-16 1h-7l-5 1v-2l-2 1h-13l-4 1v-2l-2-1 11-1h5v-2Z"/>
  <path fill="#4E4E4E" d="M210 374c7 2 15 2 23 2l1 2h-49v-1h9v-2c6-2 10-2 16-1Z"/>
  <path fill="#232323" d="M28 198c2 3 2 5 2 8v3l-1 5 2 8-1 1a75 75 0 0 0 0 7v12c0 2-1 3-3 5v-17c-1-11-1-22 1-32Z"/>
  <path fill="#272727" d="m368 87 3 3a72 72 0 0 1 1 10l1 7v30l-2 1-1-21-1-8h2l-1-4-2-18Z"/>
  <path fill="#737373" d="m67 367 8 1 1 3h7v2h2a478198195 478198195 0 0 1 14 2l18 1 14 1v1a263 263 0 0 1-49-4l-3-1h-3l-3-1-6-5Z"/>
  <path fill="#252525" d="M182 373h17v2h-5v2l-5 1h-2l-7-1h-6l-5-1c-6 0-6 0-8-2l7-1 3-1 11 1Z"/>
  <path fill="#1C1C1C" d="M370 293h1v15c0 6 0 11-3 17h-2l-2 9h-4l1-3c3-5 4-9 5-15l1-3 1-9h2v-2l-1-3v-5l1-1Z"/>
  <path fill="#252525" d="m50 55 2 1-1 2c-4 3-6 6-8 11l-3 3c-2 3-2 3-2 7l-3 3-2 5h-1c1-12 1-12 4-16h2l1-4h2v-5h4l1-4h2v-2l2-1Z"/>
  <path fill="#202020" d="m113 30 2 1h6c-2 2-4 2-7 3v-2l-2 1-8 1-9 1h-2l-2 2H80v-2l21-4 12-1Z"/>
  <path fill="#1F1F1F" d="m371 189 2 1-1 33v5l1 3v6l-2 1a160 160 0 0 1-1-29l1-20Zm0-50 2 1-1 33v5l1 3v6l-2 1a160 160 0 0 1-1-29l1-20Z"/>
  <path fill="#353535" d="m46 350 7 3v2h3v2l5 1v3l1 3 5 2-2 2-2-1v-2l-2-1-8-5-2-2-2-1v-2h-2v-2l-2-1 1-1Z"/>
  <path fill="#747474" d="M67 39v2h-3l-1 2-4 4-5 5c-1 3-1 3-4 4h-2v2h-2l1-5 4-2v-3l2-1 4-3 4-1v-2l6-2Z"/>
  <path fill="#292929" d="m79 37-3 3h-6l-1 3-6 4-3 3-7 4c2-5 3-7 8-10l3-3h3v-2c4-2 8-2 12-2Z"/>
  <path fill="#242424" d="m76 367 5 1v2h3l1-2v3l3-1a192 192 0 0 0 16 4v1l-21-2v-2h-7l-1-3 1-1Z"/>
  <path fill="#1F1F1F" d="m371 239 2 1v34l-1 3v3l-2 4a6117 6117 0 0 1 0-28v-2l1-15Z"/>
  <path fill="#1E1E1E" d="m308 371 2 2c-9 2-18 3-28 3h-2l-9-3 5-1 1 1a117 117 0 0 0 31-2Z"/>
  <path fill="#676767" d="M30 81h2l-2 17c-2 7-3 13-3 20h-1c0-12 0-25 4-37Z"/>
  <path fill="#646464" d="M26 285h1v2l1 9v3l3 17v7l-2-1-2-12v-2l-1-23Z"/>
  <path fill="#727272" d="m345 358 2 1-15 10-2 1h-5c3-3 5-5 9-6h4v-2h4v-2l3-2Z"/>
  <path fill="#6A6A6A" d="M363 68c6 6 8 15 9 23l-4-4v-7h-2l-1-5-1-3-1-4Z"/>
  <path fill="#1D1D1D" d="M287 30h3l2 1h2l5 2h-3l-6 1h-16v-2l-2-1 15-1Z"/>
  <path fill="#252525" d="M329 366c-1 3-1 3-4 5l-7 1h-7c4-3 13-8 18-6Z"/>
  <path fill="#2E2E2E" d="m163 375-1 2h-18v-2c7-2 12-2 19 0Z"/>
  <path fill="#828282" d="M343 46c7 1 11 7 15 11l1 2-1 3v-2h-2l-5-5-3-1c-3-2-4-5-5-8Z"/>
  <path fill="#5B5B5B" d="M357 344h2l-4 8-2 2-4 2v2h-2l4-9 5-2 1-3Z"/>
  <path fill="#1C1C1C" d="m360 335 1 4h-2l-1 2-1 2-1 3c-2 3-4 5-7 6l-2-1 7-7 1-2 5-7Z"/>
  <path fill="#2B2B2B" d="m368 87 3 3 1 8v8l-3-3-1-8v-8Z"/>
  <path fill="#363636" d="M356 60h2v2h2v2h2l2 11c-3-3-5-5-6-9l-1-3-1-3Z"/>
  <path fill="#1D1D1D" d="m64 46-9 8-2-1c2-5 5-9 11-7Z"/>
  <path fill="#2C2C2C" d="m62 360 6 3 3 1v2l3 1h-5l-7-3v-4Z"/>
  <path fill="#686868" d="m54 358 7 1v2l1 3 5 2-2 2-2-1v-2l-2-1-7-5v-1Z"/>
  <path fill="#2F2F2F" d="M44 344c5 2 8 4 11 9v2h-2v-2h-2c-4-1-5-4-7-7v-2Z"/>
  <path fill="#1C1C1C" d="M367 315h1c0 7-2 13-5 20l-3-1 1-3c3-5 4-9 5-15l1-1Z"/>
  <path fill="#646464" d="m67 367 8 1 1 3h7v2c-6 0-10-1-15-4l-1-2Z"/>
  <path fill="#1D1D1D" d="M28 223h1l1 8v2l-1 13-2 1 1-24Zm0-50h1l1 8v2l-1 13-2 1 1-24Z"/>
  <path fill="#474747" d="m53 49 2 1-2 5-5 1v2h-2l1-5 6-4Z"/>
  <path fill="#323232" d="M370 309h1c0 6-1 10-3 16h-1l1-13h2v-3Z"/>
  <path fill="#191919" d="m94 34-5 4-6-1h-3v-2a837 837 0 0 1 9-2l5 1Z"/>
  <path fill="#4A4A4A" d="M96 31h7v1h-2l-14 2h-7c5-3 10-3 16-3Z"/>
  <path fill="#1A1A1A" d="M246 373h3v2h-5l-1 2-7-2v-2h10Zm-50 0h3v2h-5l-1 2-7-2v-2h10Zm-50 0h3v2h-5l-1 2-7-2v-2h10Z"/>
  <path fill="#1D1D1D" d="M28 131c2 4 2 5 2 9v2c0 2 0 2-3 5l1-16Z"/>
  <path fill="#5C5C5C" d="m335 40 6 2v2l3 1-4 1h-3l-2-6Z"/>
  <path fill="#303030" d="M296 31h10c6 1 6 1 8 3l1 1-2-1h-10c-3 0-5-1-7-3Z"/>
  <path fill="#1B1B1B" d="m33 322 3 3v2h2l1 9-2-3-2-2-2-9Zm99 51 2 2-11 1-3-1h-2c5-3 8-3 14-2Z"/>
  <path fill="#717171" d="M317 371h8l-10 4h-4l-3 1 1-2 8-1v-2Z"/>
  <path fill="#525252" d="M31 317h1l2 15c-3-3-3-4-4-8l1-7Z"/>
  <path fill="#1D1D1D" d="m36 75 2 4-1 1-4 7h-1c0-4 0-7 2-10h2v-2Z"/>
  <path fill="#555" d="M30 81h2v4l-1 3-2 6v-8l1-5Z"/>
  <path fill="#282828" d="m338 46 7 1 1 4-3 1-1-3h-3l-1-3Z"/>
  <path fill="#5D5D5D" d="M343 46c3 1 5 1 7 4v3l-4-1-3-6Z"/>
  <path fill="#7E7E7E" d="m46 350 6 4v2l2 2h-3l-2-4h-2v-2l-2-1 1-1Z"/>
  <path fill="#1C1C1C" d="M371 128c2 3 2 5 2 9l-2 1-1-4v-5l1-1Z"/>
  <path fill="#272727" d="m353 58 4 3 1 2 1 2 1 2-1 2-1-2-4-4-1-5Z"/>
  <path fill="#424242" d="M359 339h2l-1 5h-3v2l-1 2-2 1c1-4 2-7 5-10Z"/>
  <path fill="#595959" d="M356 60h2v2h2v2h2l1 3-5-1-2-6Z"/>
  <path fill="#585858" d="M67 39v2h-3l-1 2-3 3h-2l1-2h2v-3l6-2Z"/>
  <path fill="#2B2B2B" d="m139 375 2 1h2v1h-7l-5-2h8Z"/>
  <path fill="#171717" d="m101 371 5 1h2l2 1v1c-4 1-7 1-11-1l2-2Z"/>
  <path fill="#191919" d="m336 359 1 3-4 1v2l-4 1c1-4 3-5 7-7Z"/>
  <path fill="#737373" d="M40 344h4l2 6-2 1v-3l-3-1-1-3Z"/>
  <path fill="#5A5A5A" d="M364 334v6h-2v2l-2-1 1-6 3-1Z"/>
  <path fill="#252525" d="m76 367 5 1v3h-5l-1-3 1-1Z"/>
  <path fill="#1F1F1F" d="M49 348h2c4 4 4 4 4 7h-2v-2l-4-2v-3Z"/>
  <path fill="#838383" d="M357 344h2l-4 8h-2l4-8Z"/>
  <path fill="#555" d="M368 83h2l2 8-4-4v-4Z"/>
</svg>
