<?xml version="1.0" encoding="UTF-8"?>
<svg version="1.1" xmlns="http://www.w3.org/2000/svg" width="400" height="400">
<path d="M0 0 C4.66524708 0.00514529 9.33048721 0.00034548 13.99573469 -0.00277233 C21.82058858 -0.00638686 29.64540443 -0.00167882 37.47025251 0.00790882 C46.45839869 0.01879611 55.4464541 0.01525554 64.43459809 0.00425601 C72.21792367 -0.00488005 80.00122227 -0.00607177 87.7845515 -0.00086665 C92.40431427 0.00221764 97.02403466 0.00276173 101.64379454 -0.00393963 C161.84104881 -0.07942656 161.84104881 -0.07942656 189.82962751 14.26865101 C189.82962751 14.92865101 189.82962751 15.58865101 189.82962751 16.26865101 C190.81962751 16.59865101 191.80962751 16.92865101 192.82962751 17.26865101 C198.95748398 21.11854344 206.68504456 26.72265204 208.52103376 34.01474476 C208.6228697 34.75853382 208.72470564 35.50232288 208.82962751 36.26865101 C209.48962751 36.26865101 210.14962751 36.26865101 210.82962751 36.26865101 C224.40520463 57.627559 223.98438357 85.24701231 223.97489119 109.75888538 C223.97789379 111.33804877 223.98129878 112.91721143 223.9850688 114.49637318 C223.99380288 118.73657535 223.99624243 122.97675728 223.99688458 127.21696758 C223.99760135 129.88131762 223.9997474 132.54566269 224.0023818 135.21001148 C224.01160147 144.54857166 224.0157211 153.88711768 224.01493025 163.22568226 C224.01433095 171.8597307 224.02486245 180.49371638 224.04067391 189.12774897 C224.05385565 196.59845151 224.05910971 204.06913381 224.05847484 211.53984785 C224.05822288 215.9759353 224.06090337 220.41196688 224.07165289 224.84804249 C224.22103065 291.05707275 224.22103065 291.05707275 212.82962751 312.26865101 C212.16962751 312.26865101 211.50962751 312.26865101 210.82962751 312.26865101 C210.82962751 312.92865101 210.82962751 313.58865101 210.82962751 314.26865101 C210.16962751 314.26865101 209.50962751 314.26865101 208.82962751 314.26865101 C208.64400251 315.09365101 208.45837751 315.91865101 208.26712751 316.76865101 C206.3678103 321.39307552 203.4865024 324.87051727 199.82962751 328.26865101 C199.16962751 328.26865101 198.50962751 328.26865101 197.82962751 328.26865101 C197.82962751 328.92865101 197.82962751 329.58865101 197.82962751 330.26865101 C186.47283846 340.8208719 170.94669866 346.42747951 155.82962751 348.26865101 C153.91347387 348.51986713 153.91347387 348.51986713 151.95861006 348.77615833 C134.35072532 350.8737508 116.66226246 350.56300184 98.9608376 350.53730202 C94.29965179 350.53216271 89.63847302 350.53695534 84.97728682 350.54007435 C77.15306872 350.54369235 69.32888864 350.53897341 61.50467634 350.5293932 C52.52572011 350.51852435 43.54685485 350.52203166 34.56790084 350.53304601 C26.79136267 350.54219493 19.0148515 350.54336708 11.23830968 350.53816867 C6.62345175 350.53508885 2.0086362 350.53452694 -2.60621881 350.54124165 C-51.55097365 350.60249269 -51.55097365 350.60249269 -69.17037249 346.26865101 C-70.19646624 346.02244007 -71.22255999 345.77622913 -72.27974749 345.52255726 C-77.03573468 344.27727659 -81.07246518 343.08596228 -85.17037249 340.26865101 C-86.16037249 339.93865101 -87.15037249 339.60865101 -88.17037249 339.26865101 C-88.17037249 338.60865101 -88.17037249 337.94865101 -88.17037249 337.26865101 C-88.89224749 337.02115101 -89.61412249 336.77365101 -90.35787249 336.51865101 C-93.44389578 335.1470851 -95.5992304 333.44423277 -98.17037249 331.26865101 C-99.31505999 330.46427601 -99.31505999 330.46427601 -100.48287249 329.64365101 C-101.31818499 328.96302601 -101.31818499 328.96302601 -102.17037249 328.26865101 C-102.17037249 327.60865101 -102.17037249 326.94865101 -102.17037249 326.26865101 C-102.83037249 326.26865101 -103.49037249 326.26865101 -104.17037249 326.26865101 C-104.17037249 325.60865101 -104.17037249 324.94865101 -104.17037249 324.26865101 C-105.16037249 323.93865101 -106.15037249 323.60865101 -107.17037249 323.26865101 C-107.17037249 322.27865101 -107.17037249 321.28865101 -107.17037249 320.26865101 C-108.16037249 319.93865101 -109.15037249 319.60865101 -110.17037249 319.26865101 C-113.17037249 314.93531768 -113.17037249 314.93531768 -113.17037249 312.26865101 C-113.83037249 311.93865101 -114.49037249 311.60865101 -115.17037249 311.26865101 C-116.05348174 309.44705601 -116.85320229 307.58459802 -117.60787249 305.70615101 C-118.22468889 304.18827991 -118.22468889 304.18827991 -118.85396624 302.63974476 C-119.2883803 301.52728382 -119.72279436 300.41482288 -120.17037249 299.26865101 C-120.43076311 298.64627552 -120.69115374 298.02390003 -120.95943499 297.38266468 C-122.93501493 292.49491124 -123.81976287 287.94251968 -124.29537249 282.70615101 C-124.36884905 282.00941273 -124.44232561 281.31267445 -124.51802874 280.59482288 C-125.8216059 267.68483497 -126.32063508 254.8330704 -126.31563616 241.86362171 C-126.31863801 240.28124381 -126.32204285 238.69886662 -126.32581377 237.11649036 C-126.33455922 232.86149807 -126.33698801 228.60652596 -126.33762956 224.35152555 C-126.3383461 221.67626159 -126.34049183 219.00100258 -126.34312677 216.32573986 C-126.35235292 206.9436699 -126.35646559 197.56161403 -126.35567522 188.17953968 C-126.35507698 179.51548573 -126.36558588 170.85149454 -126.38141888 162.18745643 C-126.39462492 154.68613854 -126.39985364 147.18484081 -126.39921981 139.68351144 C-126.39896838 135.23163207 -126.40161735 130.77980844 -126.41239786 126.32794094 C-126.44883794 110.07247557 -126.42680202 93.85068878 -125.34346819 77.62485218 C-125.27427014 76.53667603 -125.2050721 75.44849989 -125.13377714 74.32734871 C-124.36861522 64.46012421 -122.39836974 55.13059887 -118.03755999 46.20615101 C-117.15960342 44.2445904 -116.62877837 42.36422074 -116.17037249 40.26865101 C-115.51037249 40.26865101 -114.85037249 40.26865101 -114.17037249 40.26865101 C-113.88162249 39.34052601 -113.59287249 38.41240101 -113.29537249 37.45615101 C-112.17037249 34.26865101 -112.17037249 34.26865101 -110.17037249 31.26865101 C-109.51037249 31.26865101 -108.85037249 31.26865101 -108.17037249 31.26865101 C-108.07755999 30.40240101 -108.07755999 30.40240101 -107.98287249 29.51865101 C-106.83653074 26.34416618 -104.91080406 25.14016525 -102.17037249 23.26865101 C-101.51037249 23.26865101 -100.85037249 23.26865101 -100.17037249 23.26865101 C-100.17037249 22.27865101 -100.17037249 21.28865101 -100.17037249 20.26865101 C-99.57224749 20.00052601 -98.97412249 19.73240101 -98.35787249 19.45615101 C-96.12769636 18.38842698 -96.12769636 18.38842698 -94.60787249 16.64365101 C-93.17037249 15.26865101 -93.17037249 15.26865101 -90.17037249 15.26865101 C-90.17037249 14.60865101 -90.17037249 13.94865101 -90.17037249 13.26865101 C-75.71428144 5.67514251 -75.71428144 5.67514251 -68.17037249 4.26865101 C-66.79360893 3.94652724 -65.41745497 3.62179095 -64.04180193 3.29495716 C-43.28114957 -1.31434389 -21.14219028 -0.03071311 0 0 Z " fill="#010101" transform="translate(151.1703724861145,27.731348991394043)"/>
<path d="M0 0 C10.85213711 9.35654847 19.22862124 23.0021822 21.5625 37.25 C21.83254657 41.06726843 21.84240551 44.86208664 21.8125 48.6875 C21.82410156 50.16573242 21.82410156 50.16573242 21.8359375 51.67382812 C21.79026405 68.90413716 14.70935285 83.42985171 2.96875 95.93359375 C-10.87852908 109.2638478 -27.2745124 113.64874239 -45.95117188 113.62109375 C-61.73116186 113.26542155 -76.12607418 106.13457956 -87.4375 95.25 C-93.99296426 88.0766422 -98.93889487 80.34637333 -102.4375 71.25 C-102.788125 70.445625 -103.13875 69.64125 -103.5 68.8125 C-108.48380234 55.19010694 -106.75363884 35.99347873 -100.99609375 22.99609375 C-97.17768135 15.35040953 -92.50076088 9.23893019 -86.4375 3.25 C-85.83550781 2.62609375 -85.23351562 2.0021875 -84.61328125 1.359375 C-60.85342881 -21.52430066 -25.1472886 -18.70427211 0 0 Z " fill="#FCEDDB" transform="translate(209.4375,187.75)"/>
<path d="M0 0 C14.52 0 29.04 0 44 0 C44 51.48 44 102.96 44 156 C29.48 156 14.96 156 0 156 C0 104.52 0 53.04 0 0 Z " fill="#FCDDD1" transform="translate(247,144)"/>
<path d="M0 0 C39.27 0 78.54 0 119 0 C119 14.52 119 29.04 119 44 C79.73 44 40.46 44 0 44 C0 29.48 0 14.96 0 0 Z " fill="#FBFBFB" transform="translate(128,100)"/>
<path d="M0 0 C6.43875718 0.95388995 10.38658554 6.35315766 14.546875 10.90234375 C16.19448084 13.2807425 16.62396118 15.15496946 17 18 C17.66 18 18.32 18 19 18 C32.57557712 39.35890799 32.15475606 66.9783613 32.14526367 91.49023438 C32.14826627 93.06939776 32.15167127 94.64856043 32.15544128 96.22772217 C32.16417537 100.46792434 32.16661492 104.70810627 32.16725707 108.94831657 C32.16797384 111.61266661 32.17011988 114.27701169 32.17275429 116.94136047 C32.18197395 126.27992065 32.18609359 135.61846667 32.18530273 144.95703125 C32.18470344 153.59107969 32.19523494 162.22506537 32.2110464 170.85909796 C32.22422814 178.3298005 32.2294822 185.8004828 32.22884732 193.27119684 C32.22859536 197.70728429 32.23127586 202.14331587 32.24202538 206.57939148 C32.39140314 272.78842174 32.39140314 272.78842174 21 294 C20.34 294 19.68 294 19 294 C19 294.66 19 295.32 19 296 C18.34 296 17.68 296 17 296 C16.7215625 297.2375 16.7215625 297.2375 16.4375 298.5 C14.53818279 303.12442451 11.65687488 306.60186626 8 310 C7.34 310 6.68 310 6 310 C6 310.66 6 311.32 6 312 C1.03405168 316.61413727 -5.02055487 319.89788185 -11 323 C-12.02867187 323.59554687 -12.02867187 323.59554687 -13.078125 324.203125 C-15 325 -15 325 -18 324 C-17.01 323.34 -16.02 322.68 -15 322 C-14.70996094 321.19820313 -14.41992188 320.39640625 -14.12109375 319.5703125 C-12.68760347 316.2837738 -11.18441852 315.55285929 -8.0625 313.875 C-4.45629663 311.94436858 -4.45629663 311.94436858 -1.37109375 309.3203125 C0 308 0 308 3 308 C3.3403125 307.1646875 3.3403125 307.1646875 3.6875 306.3125 C5 304 5 304 7.4375 301.625 C10.11928274 298.87780793 11.35330133 296.43658854 13 293 C14.33333333 291.33333333 15.66666667 289.66666667 17 288 C18.0650015 286.03384339 19.06833174 284.03273074 20 282 C20.37125 281.195625 20.7425 280.39125 21.125 279.5625 C22.20270052 276.40637706 22.53692417 273.2994153 23 270 C23.350625 268.989375 23.70125 267.97875 24.0625 266.9375 C25.064185 263.798887 25.15585675 261.27299168 25 258 C25.66 258 26.32 258 27 258 C26.91621094 257.33613281 26.83242188 256.67226563 26.74609375 255.98828125 C26.21503006 251.38348852 25.83880746 247.5286509 27 243 C28.01668562 235.56006802 28.285892 228.12429106 28.50268555 220.62573242 C28.56228235 218.57000757 28.62736854 216.51451293 28.69335938 214.45898438 C28.81335048 210.63971864 28.90858598 206.82006129 29 203 C29.03206543 201.99050293 29.06413086 200.98100586 29.09716797 199.94091797 C29.11537598 199.06193848 29.13358398 198.18295898 29.15234375 197.27734375 C29.18122681 196.16540649 29.18122681 196.16540649 29.21069336 195.03100586 C29.1342011 192.96280086 29.1342011 192.96280086 28.00488281 191.25683594 C26.46953828 187.80865204 26.73548376 184.32021116 26.76953125 180.61328125 C26.76998947 179.7968364 26.77044769 178.98039154 26.7709198 178.13920593 C26.77393746 176.41188097 26.78180922 174.68455862 26.79418945 172.95727539 C26.81231477 170.33925504 26.81469981 167.72159188 26.81445312 165.10351562 C26.81937422 163.41926783 26.8252051 161.7350224 26.83203125 160.05078125 C26.83314407 159.27857742 26.8342569 158.5063736 26.83540344 157.71076965 C26.8747887 153.09803227 27.20607195 148.61916101 27.82911682 144.04728699 C28.00626338 141.92496082 27.85999776 140.04349286 27.5703125 137.9375 C26.72792219 131.69676919 26.85089954 125.42797822 26.86962891 119.14355469 C26.87498876 117.0044852 26.86965627 114.86562562 26.86328125 112.7265625 C26.86058924 105.73515573 27.14176546 98.93799688 28 92 C27.83183647 89.86928613 27.54932267 87.78059026 27.25390625 85.6640625 C26.80358411 80.93914409 26.98446475 76.1937667 27.0625 71.453125 C27.00842953 68.46573178 26.70620798 65.89103894 26 63 C26.66 63 27.32 63 28 63 C27.86722656 62.43152344 27.73445313 61.86304688 27.59765625 61.27734375 C25.48970298 52.06081816 24.87204437 43.45449936 25 34 C24.34 34 23.68 34 23 34 C22.67 32.35 22.34 30.7 22 29 C21.01 28.67 20.02 28.34 19 28 C17.03319502 25.3179932 15.33038673 22.67912828 13.875 19.6875 C13.11181389 17.8108354 13.11181389 17.8108354 11 17 C10.896875 16.195625 10.79375 15.39125 10.6875 14.5625 C10.460625 13.716875 10.23375 12.87125 10 12 C7.52363988 10.62533375 7.52363988 10.62533375 5 10 C5 9.34 5 8.68 5 8 C4.34 8 3.68 8 3 8 C2.5359375 6.576875 2.5359375 6.576875 2.0625 5.125 C1.12605258 2.13919592 1.12605258 2.13919592 0 0 Z " fill="#3F3F3F" transform="translate(343,46)"/>
<path d="M0 0 C4.66524708 0.00514529 9.33048721 0.00034548 13.99573469 -0.00277233 C21.82058858 -0.00638686 29.64540443 -0.00167882 37.47025251 0.00790882 C46.45839869 0.01879611 55.4464541 0.01525554 64.43459809 0.00425601 C72.21792367 -0.00488005 80.00122227 -0.00607177 87.7845515 -0.00086665 C92.40431427 0.00221764 97.02403466 0.00276173 101.64379454 -0.00393963 C161.91591713 -0.07952044 161.91591713 -0.07952044 183.82962751 11.26865101 C180.42030854 12.40509067 179.82627295 12.13612865 176.64212751 10.83115101 C175.92669783 10.54369007 175.21126814 10.25622913 174.47415876 9.96005726 C173.93146345 9.7318932 173.38876814 9.50372913 172.82962751 9.26865101 C172.82962751 8.60865101 172.82962751 7.94865101 172.82962751 7.26865101 C171.9073033 7.3034557 171.9073033 7.3034557 170.96634626 7.33896351 C169.75398298 7.36603382 169.75398298 7.36603382 168.51712751 7.39365101 C167.7166197 7.41685413 166.91611189 7.44005726 166.09134626 7.46396351 C163.82962751 7.26865101 163.82962751 7.26865101 160.82962751 5.26865101 C153.91178128 4.077022 146.89622552 3.88013072 139.89212751 3.58115101 C138.7635533 3.5212096 137.63497908 3.4612682 136.47220564 3.39951038 C130.67763649 3.15343502 125.71830308 3.33288394 120.11942244 4.80795765 C115.45883951 5.7456397 110.68667019 5.4309959 105.95462751 5.33115101 C103.9156354 5.29674302 101.87656561 5.26659668 99.83744001 5.24130726 C98.94685896 5.22334095 98.0562779 5.20537464 97.13870955 5.1868639 C94.6682384 5.16553153 94.6682384 5.16553153 91.82962751 6.26865101 C91.82962751 5.60865101 91.82962751 4.94865101 91.82962751 4.26865101 C90.68494001 4.51615101 90.68494001 4.51615101 89.51712751 4.76865101 C85.41312897 5.32512539 81.54393882 5.20742774 77.41556501 5.01083851 C74.35571355 5.31589923 73.05233134 6.19204039 70.82962751 8.26865101 C70.82962751 8.59865101 70.82962751 8.92865101 70.82962751 9.26865101 C61.25962751 9.26865101 51.68962751 9.26865101 41.82962751 9.26865101 C41.82962751 7.61865101 41.82962751 5.96865101 41.82962751 4.26865101 C40.68494001 4.51615101 40.68494001 4.51615101 39.51712751 4.76865101 C35.3701549 5.33095238 31.39700534 5.29744615 27.22025251 5.20615101 C24.81357192 5.10014334 24.81357192 5.10014334 22.82962751 6.26865101 C22.82962751 5.60865101 22.82962751 4.94865101 22.82962751 4.26865101 C16.70302394 4.16654095 10.73888588 4.4903496 4.63822126 5.04990101 C2.3253624 5.23004022 0.08372322 5.30783233 -2.23287249 5.26865101 C-5.23295923 5.11383116 -5.23295923 5.11383116 -8.17037249 6.26865101 C-8.17037249 5.60865101 -8.17037249 4.94865101 -8.17037249 4.26865101 C-9.31505999 4.51615101 -9.31505999 4.51615101 -10.48287249 4.76865101 C-14.6298451 5.33095238 -18.60299466 5.29744615 -22.77974749 5.20615101 C-25.18642808 5.10014334 -25.18642808 5.10014334 -27.17037249 6.26865101 C-27.17037249 5.60865101 -27.17037249 4.94865101 -27.17037249 4.26865101 C-30.29487781 4.07220008 -33.41998694 3.88801612 -36.54537249 3.70615101 C-37.43482561 3.65007679 -38.32427874 3.59400257 -39.24068499 3.53622913 C-40.09146624 3.48788929 -40.94224749 3.43954945 -41.81880999 3.38974476 C-42.99709368 3.31904774 -42.99709368 3.31904774 -44.19918108 3.24692249 C-46.24916213 3.12582594 -46.24916213 3.12582594 -48.17037249 4.26865101 C-50.06317679 4.44960195 -51.96002187 4.58947011 -53.85787249 4.70615101 C-58.60904385 5.05893259 -62.64615567 5.85483325 -67.17037249 7.26865101 C-68.49037249 7.26865101 -69.81037249 7.26865101 -71.17037249 7.26865101 C-71.17037249 7.92865101 -71.17037249 8.58865101 -71.17037249 9.26865101 C-75.46037249 9.92865101 -79.75037249 10.58865101 -84.17037249 11.26865101 C-81.09447039 8.19274891 -79.62746474 7.50059597 -75.60787249 6.20615101 C-74.63720842 5.88517445 -73.66654436 5.56419788 -72.66646624 5.23349476 C-49.16576321 -1.25217412 -24.15437049 -0.03508888 0 0 Z " fill="#0D0D0D" transform="translate(151.1703724861145,27.731348991394043)"/>
<path d="M0 0 C2.64 0.33 5.28 0.66 8 1 C8.33 1.99 8.66 2.98 9 4 C11.31 4 13.62 4 16 4 C16 4.66 16 5.32 16 6 C24.54793128 6.92100881 32.85515201 7.02118456 41.4375 6.625 C43.15356445 6.55925781 43.15356445 6.55925781 44.90429688 6.4921875 C50.88803734 6.28224924 50.88803734 6.28224924 56.79711914 5.41552734 C57.52406982 5.27840332 58.25102051 5.1412793 59 5 C59.495 5.495 59.495 5.495 60 6 C61.4346959 6.09894455 62.87440397 6.12970735 64.3125 6.125 C65.09238281 6.12757813 65.87226563 6.13015625 66.67578125 6.1328125 C68.98510929 6.07427831 68.98510929 6.07427831 71.10546875 5.46875 C74.5043646 4.62778608 77.82452428 5.65427185 81.125 6.625 C83.36299913 7.07259983 84.82684227 6.59949179 87 6 C87.495 6.495 87.495 6.495 88 7 C90.59860029 6.93473835 93.1592331 6.80744837 95.75 6.625 C96.46671875 6.58117187 97.1834375 6.53734375 97.921875 6.4921875 C100.98473269 6.28949839 103.94314709 6.01158115 106.953125 5.3984375 C107.62859375 5.26695312 108.3040625 5.13546875 109 5 C109.495 5.495 109.495 5.495 110 6 C111.4346959 6.09894455 112.87440397 6.12970735 114.3125 6.125 C115.09238281 6.12757813 115.87226563 6.13015625 116.67578125 6.1328125 C118.98510929 6.07427831 118.98510929 6.07427831 121.10546875 5.46875 C124.5043646 4.62778608 127.82452428 5.65427185 131.125 6.625 C133.36299913 7.07259983 134.82684227 6.59949179 137 6 C137.33 6.33 137.66 6.66 138 7 C140.59860029 6.93473835 143.1592331 6.80744837 145.75 6.625 C146.46671875 6.58117187 147.1834375 6.53734375 147.921875 6.4921875 C150.98473269 6.28949839 153.94314709 6.01158115 156.953125 5.3984375 C157.62859375 5.26695312 158.3040625 5.13546875 159 5 C159.33 5.33 159.66 5.66 160 6 C161.4346959 6.09894455 162.87440397 6.12970735 164.3125 6.125 C165.09238281 6.12757813 165.87226563 6.13015625 166.67578125 6.1328125 C168.98510929 6.07427831 168.98510929 6.07427831 171.10546875 5.46875 C174.5043646 4.62778608 177.82452428 5.65427185 181.125 6.625 C183.36299913 7.07259983 184.82684227 6.59949179 187 6 C187.33 6.33 187.66 6.66 188 7 C190.59860029 6.93473835 193.1592331 6.80744837 195.75 6.625 C196.46671875 6.58117187 197.1834375 6.53734375 197.921875 6.4921875 C200.98473269 6.28949839 203.94314709 6.01158115 206.953125 5.3984375 C207.62859375 5.26695312 208.3040625 5.13546875 209 5 C209.33 5.33 209.66 5.66 210 6 C218.49037344 6.56427521 226.73864794 5.76795195 235.14379883 4.71606445 C242.77540002 3.80903994 250.32695556 3.8118327 258 4 C238.92916393 16.71389071 201.69499811 11.30206478 179.43195677 11.26865101 C174.89625555 11.26348833 170.36056127 11.26831013 165.82485962 11.27142334 C158.21883666 11.275033 150.6128529 11.27034293 143.00683594 11.26074219 C134.28282323 11.24985563 125.55890405 11.25339695 116.83489358 11.264395 C109.26632062 11.27354498 101.69777539 11.27471614 94.12919867 11.26951766 C89.64296481 11.26644088 85.15677452 11.26586751 80.67054367 11.27259064 C32.76117415 11.33435322 32.76117415 11.33435322 15 7 C13.96230469 6.76539063 12.92460938 6.53078125 11.85546875 6.2890625 C10.53482422 5.96035156 10.53482422 5.96035156 9.1875 5.625 C8.29417969 5.41101563 7.40085937 5.19703125 6.48046875 4.9765625 C3.57491472 3.83264359 2.04933282 2.32162179 0 0 Z " fill="#505050" transform="translate(67,367)"/>
<path d="M0 0 C0 0.66 0 1.32 0 2 C-0.99 2 -1.98 2 -3 2 C-3.20625 2.5775 -3.4125 3.155 -3.625 3.75 C-5 6 -5 6 -7.9375 7.875 C-11.21263784 9.77944693 -11.21263784 9.77944693 -12.5625 13.1875 C-14 16 -14 16 -16.6875 16.875 C-17.450625 16.91625 -18.21375 16.9575 -19 17 C-19 17.66 -19 18.32 -19 19 C-19.66 19.33 -20.32 19.66 -21 20 C-21.33 20.99 -21.66 21.98 -22 23 C-23.32 23 -24.64 23 -26 23 C-26 24.65 -26 26.3 -26 28 C-26.66 28.33 -27.32 28.66 -28 29 C-28.33 29.99 -28.66 30.98 -29 32 C-29.66 32 -30.32 32 -31 32 C-33.43406696 38.5487992 -34.23143417 44.18693568 -34.04296875 51.16015625 C-33.97049875 55.94976432 -34.47928018 60.43784055 -36 65 C-36.04384447 66.66608987 -36.0396713 68.33380554 -36 70 C-35.92586025 73.11386969 -36.00224927 75.00674781 -37 78 C-36.34 78.33 -35.68 78.66 -35 79 C-35.66 79 -36.32 79 -37 79 C-36.7215625 79.9590625 -36.7215625 79.9590625 -36.4375 80.9375 C-36.293125 81.618125 -36.14875 82.29875 -36 83 C-36.495 83.495 -36.495 83.495 -37 84 C-37.07481665 85.51522417 -37.08322661 87.0338527 -37.0625 88.55078125 C-37.05476563 89.47697266 -37.04703125 90.40316406 -37.0390625 91.35742188 C-37.01317571 93.31575726 -36.98713591 95.27409063 -36.9609375 97.23242188 C-36.95320313 98.16248047 -36.94546875 99.09253906 -36.9375 100.05078125 C-36.92589844 100.90325439 -36.91429687 101.75572754 -36.90234375 102.6340332 C-37 105 -37 105 -37.53125 107.06323242 C-38.19331006 109.79871288 -37.65404429 112.29550108 -37.26171875 115.046875 C-36.81893069 118.3512635 -36.79591786 121.20407966 -37.625 124.4375 C-38.10910935 127.74558053 -37.21387483 129.92961071 -36 133 C-36.33 133.33 -36.66 133.66 -37 134 C-37.06276986 135.45701034 -37.05939581 136.91699045 -37.02734375 138.375 C-37.01509766 139.27863281 -37.00285156 140.18226563 -36.99023438 141.11328125 C-36.95564741 143.00659747 -36.91673445 144.89984066 -36.87304688 146.79296875 C-36.81154893 151.92262055 -37.20965046 156.36785166 -38.46890259 161.32763672 C-40.5902228 172.00164512 -40.15881641 183.48938752 -40.16796875 194.3125 C-40.17120015 195.73811879 -40.17456545 197.16373729 -40.17805481 198.58935547 C-40.18398419 201.55746221 -40.18590131 204.52554012 -40.18530273 207.49365234 C-40.18522178 210.48362314 -40.19212568 213.47343971 -40.20581055 216.46337891 C-40.98201033 248.97792669 -40.98201033 248.97792669 -35.0625 280.6875 C-34.81048828 281.55181641 -34.55847656 282.41613281 -34.29882812 283.30664062 C-33.03790395 287.46349806 -31.8126855 290.62640323 -29 294 C-28.3125 297.25 -28.3125 297.25 -28 300 C-27.01 300.33 -26.02 300.66 -25 301 C-23.796875 302.7421875 -23.796875 302.7421875 -22.75 304.875 C-22.21632813 305.92300781 -22.21632813 305.92300781 -21.671875 306.9921875 C-21 309 -21 309 -22 312 C-22.33 311.01 -22.66 310.02 -23 309 C-23.99 308.67 -24.98 308.34 -26 308 C-29 303.66666667 -29 303.66666667 -29 301 C-29.66 300.67 -30.32 300.34 -31 300 C-31.88310925 298.17840501 -32.6828298 296.31594701 -33.4375 294.4375 C-34.05431641 292.91962891 -34.05431641 292.91962891 -34.68359375 291.37109375 C-35.11800781 290.25863281 -35.55242188 289.14617187 -36 288 C-36.26039062 287.37762451 -36.52078125 286.75524902 -36.7890625 286.11401367 C-38.76464245 281.22626024 -39.64939038 276.67386867 -40.125 271.4375 C-40.19847656 270.74076172 -40.27195312 270.04402344 -40.34765625 269.32617188 C-41.65123342 256.41618396 -42.15026259 243.56441939 -42.14526367 230.5949707 C-42.14826552 229.0125928 -42.15167036 227.43021561 -42.15544128 225.84783936 C-42.16418673 221.59284706 -42.16661552 217.33787495 -42.16725707 213.08287454 C-42.16797362 210.40761058 -42.17011934 207.73235157 -42.17275429 205.05708885 C-42.18198043 195.67501889 -42.1860931 186.29296302 -42.18530273 176.91088867 C-42.18470449 168.24683472 -42.1952134 159.58284353 -42.2110464 150.91880542 C-42.22425244 143.41748753 -42.22948115 135.91618981 -42.22884732 128.41486043 C-42.22859589 123.96298106 -42.23124486 119.51115743 -42.24202538 115.05928993 C-42.27846545 98.80382456 -42.25642953 82.58203778 -41.1730957 66.35620117 C-41.10389766 65.26802503 -41.03469961 64.17984888 -40.96340466 63.0586977 C-40.19824273 53.1914732 -38.22799725 43.86194786 -33.8671875 34.9375 C-32.98923094 32.97593939 -32.45840588 31.09556973 -32 29 C-31.34 29 -30.68 29 -30 29 C-29.71125 28.071875 -29.4225 27.14375 -29.125 26.1875 C-28 23 -28 23 -26 20 C-25.34 20 -24.68 20 -24 20 C-23.9071875 19.13375 -23.9071875 19.13375 -23.8125 18.25 C-22.66615826 15.07551517 -20.74043158 13.87151425 -18 12 C-17.34 12 -16.68 12 -16 12 C-16 11.01 -16 10.02 -16 9 C-15.1028125 8.5978125 -15.1028125 8.5978125 -14.1875 8.1875 C-11.95732387 7.11977597 -11.95732387 7.11977597 -10.4375 5.375 C-9 4 -9 4 -6 4 C-6 3.34 -6 2.68 -6 2 C-2.25 0 -2.25 0 0 0 Z " fill="#323232" transform="translate(67,39)"/>
<path d="M0 0 C6.43875718 0.95388995 10.38658554 6.35315766 14.546875 10.90234375 C16.19448084 13.2807425 16.62396118 15.15496946 17 18 C17.66 18 18.32 18 19 18 C32.64951194 39.47523212 32.17509387 67.21980241 32.11352539 91.87109375 C32.11324241 93.48919676 32.11340342 95.1072999 32.1139679 96.72540283 C32.11425153 101.06317158 32.10842572 105.40091194 32.10139394 109.73867416 C32.09508743 114.292334 32.09455088 118.84599468 32.09336853 123.3996582 C32.09027653 131.9981284 32.08209223 140.59658569 32.07201904 149.19505024 C32.06079125 158.99450754 32.05533075 168.79396551 32.05032361 178.59342766 C32.03990754 198.72895894 32.02234991 218.86447865 32 239 C31.67 239 31.34 239 31 239 C30.67 204.68 30.34 170.36 30 135 C29.34 134.67 28.68 134.34 28 134 C28.03029297 133.11328613 28.06058594 132.22657227 28.09179688 131.31298828 C28.20495734 127.97693067 28.31659339 124.64082888 28.42724609 121.3046875 C28.47515178 119.8694461 28.52363933 118.43422398 28.57275391 116.99902344 C28.73219103 112.33304716 28.87244047 107.66696169 29 103 C29.03351563 101.97745117 29.06703125 100.95490234 29.1015625 99.90136719 C29.11960937 99.02383789 29.13765625 98.14630859 29.15625 97.2421875 C29.17494141 96.50597168 29.19363281 95.76975586 29.21289062 95.01123047 C29.11420468 92.93506545 29.11420468 92.93506545 28.00024414 91.03540039 C26.79259254 88.57794583 26.78434121 86.91740405 26.83984375 84.19140625 C26.85080078 83.27939453 26.86175781 82.36738281 26.87304688 81.42773438 C26.89431641 80.48220703 26.91558594 79.53667969 26.9375 78.5625 C26.97212537 76.68888268 27.00221912 74.81517505 27.02734375 72.94140625 C27.04531006 72.11326416 27.06327637 71.28512207 27.08178711 70.43188477 C26.99524159 67.85851181 26.57012997 65.50706344 26 63 C26.66 63 27.32 63 28 63 C27.86722656 62.43152344 27.73445313 61.86304688 27.59765625 61.27734375 C25.48970298 52.06081816 24.87204437 43.45449936 25 34 C24.34 34 23.68 34 23 34 C22.505 31.525 22.505 31.525 22 29 C21.01 28.67 20.02 28.34 19 28 C17.03319502 25.3179932 15.33038673 22.67912828 13.875 19.6875 C13.11181389 17.8108354 13.11181389 17.8108354 11 17 C10.896875 16.195625 10.79375 15.39125 10.6875 14.5625 C10.460625 13.716875 10.23375 12.87125 10 12 C7.52363988 10.62533375 7.52363988 10.62533375 5 10 C5 9.34 5 8.68 5 8 C4.34 8 3.68 8 3 8 C2.690625 7.05125 2.38125 6.1025 2.0625 5.125 C1.12605258 2.13919592 1.12605258 2.13919592 0 0 Z " fill="#636363" transform="translate(343,46)"/>
<path d="M0 0 C-17.05030195 11.36686797 -48.79985358 7.18261336 -68.375 7.1875 C-69.46117615 7.18849701 -70.54735229 7.18949402 -71.66644287 7.19052124 C-74.7855108 7.19019723 -77.90439976 7.18116512 -81.0234375 7.16796875 C-81.97029419 7.16676025 -82.91715088 7.16555176 -83.8927002 7.16430664 C-84.77035034 7.15802246 -85.64800049 7.15173828 -86.55224609 7.14526367 C-87.31765717 7.14145187 -88.08306824 7.13764008 -88.87167358 7.13371277 C-91.02976655 6.99812991 -92.91823533 6.5658705 -95 6 C-96.34371209 5.88237142 -97.69104957 5.80144363 -99.0390625 5.75390625 C-100.15667969 5.70459961 -100.15667969 5.70459961 -101.296875 5.65429688 C-102.8566106 5.59279723 -104.41651919 5.53554627 -105.9765625 5.48242188 C-111.78479726 5.21520274 -111.78479726 5.21520274 -114 3 C-111.52163716 2.63913128 -109.04260213 2.28601843 -106.5625 1.9375 C-105.85544922 1.83373047 -105.14839844 1.72996094 -104.41992188 1.62304688 C-102.61864093 1.37310837 -100.80940959 1.18198686 -99 1 C-98.67 1.33 -98.34 1.66 -98 2 C-96.5653041 2.09894455 -95.12559603 2.12970735 -93.6875 2.125 C-92.90761719 2.12757813 -92.12773437 2.13015625 -91.32421875 2.1328125 C-89.01489071 2.07427831 -89.01489071 2.07427831 -86.89453125 1.46875 C-83.4956354 0.62778608 -80.17547572 1.65427185 -76.875 2.625 C-74.63700087 3.07259983 -73.17315773 2.59949179 -71 2 C-70.505 2.495 -70.505 2.495 -70 3 C-67.40139971 2.93473835 -64.8407669 2.80744837 -62.25 2.625 C-61.53328125 2.58117187 -60.8165625 2.53734375 -60.078125 2.4921875 C-57.01526731 2.28949839 -54.05685291 2.01158115 -51.046875 1.3984375 C-50.03367187 1.20121094 -50.03367187 1.20121094 -49 1 C-48.505 1.495 -48.505 1.495 -48 2 C-39.72814285 2.54221015 -31.74474908 1.81168115 -23.56860352 0.71606445 C-15.71338568 -0.2746596 -7.90260687 -0.17803119 0 0 Z " fill="#282828" transform="translate(325,371)"/>
<path d="M0 0 C1.69304563 2.95111907 2.25221572 5.0428661 2.1875 8.4375 C2.17332031 9.22640625 2.15914062 10.0153125 2.14453125 10.828125 C2 13 2 13 1.375 15.6875 C0.86049879 18.86025745 1.83643821 21.05687313 3 24 C2.67 24.33 2.34 24.66 2 25 C1.92518335 26.51522417 1.91677339 28.0338527 1.9375 29.55078125 C1.94523437 30.47697266 1.95296875 31.40316406 1.9609375 32.35742188 C1.98682429 34.31575726 2.01286409 36.27409063 2.0390625 38.23242188 C2.04679687 39.16248047 2.05453125 40.09253906 2.0625 41.05078125 C2.07410156 41.90325439 2.08570313 42.75572754 2.09765625 43.6340332 C2 46 2 46 1.46875 48.06323242 C0.80668994 50.79871288 1.34595571 53.29550108 1.73828125 56.046875 C2.18106931 59.3512635 2.20408214 62.20407966 1.375 65.4375 C0.89089065 68.74558053 1.78612517 70.92961071 3 74 C2.505 74.495 2.505 74.495 2 75 C1.90030159 76.74765452 1.87031955 78.4995103 1.875 80.25 C1.87242188 81.20390625 1.86984375 82.1578125 1.8671875 83.140625 C1.92033564 85.94473833 1.92033564 85.94473833 2.51171875 88.41796875 C3.12931788 91.68383295 3.0178263 94.74118215 2.9375 98.0625 C2.87691189 104.91568805 3.60285359 111.30118196 5 118 C4.01 118 3.02 118 2 118 C1.50855497 115.64786374 1.03205894 113.2940307 0.5625 110.9375 C0.42779297 110.30005859 0.29308594 109.66261719 0.15429688 109.00585938 C-2.26339788 96.68151295 -2.15397818 83.91398548 -2.1328125 71.40625 C-2.13348935 69.96146631 -2.13446252 68.51668273 -2.13571167 67.07189941 C-2.13717074 64.07021989 -2.13509261 61.0685705 -2.13037109 58.06689453 C-2.12467493 54.26521657 -2.12796367 50.46360928 -2.13394356 46.6619339 C-2.13759809 43.68637584 -2.13638842 40.71083388 -2.13381577 37.73527527 C-2.13315994 36.33538301 -2.13392641 34.93548917 -2.13629532 33.53559875 C-2.16786149 9.65522205 -2.16786149 9.65522205 0 0 Z " fill="#2A2A2A" transform="translate(28,198)"/>
<path d="M0 0 C0.33 0 0.66 0 1 0 C1.00331015 0.82401086 1.00662029 1.64802172 1.01003075 2.4970026 C1.09164625 22.65044414 1.18386058 42.80381366 1.28752708 62.95715427 C1.33741243 72.70359835 1.38385564 82.45003502 1.421875 92.1965332 C1.45506468 100.70258573 1.49503918 109.2085763 1.54279006 117.71455997 C1.56779043 122.20839571 1.5896458 126.70219177 1.60334396 131.19607735 C0.85635629 165.36274802 0.85635629 165.36274802 6.9375 198.6875 C7.18951172 199.55181641 7.44152344 200.41613281 7.70117188 201.30664062 C8.96209605 205.46349806 10.1873145 208.62640323 13 212 C13.6875 215.25 13.6875 215.25 14 218 C14.99 218.33 15.98 218.66 17 219 C18.203125 220.7421875 18.203125 220.7421875 19.25 222.875 C19.78367187 223.92300781 19.78367187 223.92300781 20.328125 224.9921875 C21 227 21 227 20 230 C19.67 229.01 19.34 228.02 19 227 C18.01 226.67 17.02 226.34 16 226 C13 221.66666667 13 221.66666667 13 219 C12.34 218.67 11.68 218.34 11 218 C10.11689075 216.17840501 9.3171702 214.31594701 8.5625 212.4375 C8.15128906 211.42558594 7.74007812 210.41367187 7.31640625 209.37109375 C6.66478516 207.70240234 6.66478516 207.70240234 6 206 C5.73960938 205.37762451 5.47921875 204.75524902 5.2109375 204.11401367 C3.23535755 199.22626024 2.35060962 194.67386867 1.875 189.4375 C1.80152344 188.74076172 1.72804688 188.04402344 1.65234375 187.32617188 C0.33259508 174.25602935 -0.14601848 161.27547381 -0.11352539 148.15063477 C-0.11324249 146.52282717 -0.11340326 144.89501944 -0.1139679 143.26721191 C-0.11425185 138.89839331 -0.10842071 134.52960282 -0.10139394 130.16079068 C-0.09509291 125.57642848 -0.09455131 120.99206545 -0.09336853 116.40769958 C-0.09027495 107.74898899 -0.08208846 99.09029119 -0.07201904 90.43158621 C-0.06079624 80.56443873 -0.05533199 70.69729061 -0.05032361 60.83013833 C-0.03990395 40.55341844 -0.02234317 20.27671003 0 0 Z " fill="#7C7C7C" transform="translate(25,121)"/>
<path d="M0 0 C0.66 0.66 1.32 1.32 2 2 C-0.11234695 9.37074256 -2.30337613 16.26686366 -6 23 C-6.66 23 -7.32 23 -8 23 C-8 23.66 -8 24.32 -8 25 C-8.66 25 -9.32 25 -10 25 C-10.2784375 26.2375 -10.2784375 26.2375 -10.5625 27.5 C-12.46181721 32.12442451 -15.34312512 35.60186626 -19 39 C-19.66 39 -20.32 39 -21 39 C-21 39.66 -21 40.32 -21 41 C-25.96594832 45.61413727 -32.02055487 48.89788185 -38 52 C-38.68578125 52.39703125 -39.3715625 52.7940625 -40.078125 53.203125 C-42 54 -42 54 -45 53 C-44.01 52.34 -43.02 51.68 -42 51 C-41.70996094 50.19820313 -41.41992188 49.39640625 -41.12109375 48.5703125 C-39.68760347 45.2837738 -38.18441852 44.55285929 -35.0625 42.875 C-31.45629663 40.94436858 -31.45629663 40.94436858 -28.37109375 38.3203125 C-27 37 -27 37 -24 37 C-23.773125 36.443125 -23.54625 35.88625 -23.3125 35.3125 C-22 33 -22 33 -19.5625 30.625 C-16.88948466 27.88678916 -15.66811795 25.40876277 -14 22 C-11.63254428 19.26262933 -10.45870295 18.15290098 -7 17 C-5.97718482 14.90280128 -5.97718482 14.90280128 -5.3125 12.4375 C-4.93544922 11.19806641 -4.93544922 11.19806641 -4.55078125 9.93359375 C-4.36902344 9.29550781 -4.18726563 8.65742188 -4 8 C-3.34 8 -2.68 8 -2 8 C-1.855625 7.4225 -1.71125 6.845 -1.5625 6.25 C-1.04166667 4.16666667 -0.52083333 2.08333333 0 0 Z " fill="#2D2D2D" transform="translate(370,317)"/>
<path d="M0 0 C4.2514848 0.02081536 8.50299505 0.02966833 12.7545166 0.03967285 C21.02997484 0.06083664 29.30531269 0.09476531 37.58068848 0.1373291 C37.58068848 0.7973291 37.58068848 1.4573291 37.58068848 2.1373291 C36.70154785 2.12572754 35.82240723 2.11412598 34.91662598 2.10217285 C25.54302826 2.0374636 16.1771559 2.18802116 6.80731201 2.45571899 C5.45058712 2.49338436 4.09376805 2.52780099 2.73687744 2.55892944 C0.80306185 2.60436178 -1.13041452 2.6635837 -3.06384277 2.7232666 C-4.19153076 2.7546875 -5.31921875 2.7861084 -6.4810791 2.81848145 C-9.34376918 3.12913149 -10.942821 3.76286493 -13.41931152 5.1373291 C-16.14587402 5.29748535 -16.14587402 5.29748535 -19.04431152 5.1998291 C-22.88105206 4.97235214 -22.88105206 4.97235214 -26.41931152 6.1373291 C-26.41931152 5.4773291 -26.41931152 4.8173291 -26.41931152 4.1373291 C-29.54381685 3.94087817 -32.66892598 3.75669421 -35.79431152 3.5748291 C-36.68376465 3.51875488 -37.57321777 3.46268066 -38.48962402 3.40490723 C-39.34040527 3.35656738 -40.19118652 3.30822754 -41.06774902 3.25842285 C-42.24603271 3.18772583 -42.24603271 3.18772583 -43.44812012 3.11560059 C-45.49810116 2.99450404 -45.49810116 2.99450404 -47.41931152 4.1373291 C-49.31211583 4.31828004 -51.20896091 4.4581482 -53.10681152 4.5748291 C-57.85798288 4.92761069 -61.89509471 5.72351135 -66.41931152 7.1373291 C-67.73931152 7.1373291 -69.05931152 7.1373291 -70.41931152 7.1373291 C-70.41931152 7.7973291 -70.41931152 8.4573291 -70.41931152 9.1373291 C-74.70931152 9.7973291 -78.99931152 10.4573291 -83.41931152 11.1373291 C-80.34340942 8.061427 -78.87640378 7.36927406 -74.85681152 6.0748291 C-73.88614746 5.75385254 -72.9154834 5.43287598 -71.91540527 5.10217285 C-48.62507722 -1.32543724 -23.93311948 -0.12996313 0 0 Z " fill="#4D4D4D" transform="translate(150.4193115234375,27.8626708984375)"/>
<path d="M0 0 C0.66 0.33 1.32 0.66 2 1 C2.13157062 11.89112359 1.86433415 22.71687896 1.26782227 33.59399414 C1.21940186 34.54266357 1.17098145 35.49133301 1.12109375 36.46875 C1.0739624 37.31888672 1.02683105 38.16902344 0.97827148 39.04492188 C0.77219701 41.00526531 0.77219701 41.00526531 2 42 C2 37.38 2 32.76 2 28 C2.33 28 2.66 28 3 28 C3.02577224 34.75454881 3.04303976 41.50908453 3.05493164 48.26367188 C3.05989949 50.55208815 3.06667605 52.84050136 3.07543945 55.12890625 C3.12884923 69.45529248 2.89704327 83.69989639 2 98 C1.01 98.495 1.01 98.495 0 99 C-1.07140114 91.38114745 -1.15326212 83.82437511 -1.13037109 76.14355469 C-1.12501124 74.0044852 -1.13034373 71.86562562 -1.13671875 69.7265625 C-1.14036466 58.32745235 -1.14036466 58.32745235 -0.4296875 53.0625 C0.05132072 49.44435276 -0.24690723 46.29521446 -0.73339844 42.69189453 C-1.27914875 37.18141567 -1.14681422 31.62173581 -1.13037109 26.08862305 C-1.12500267 23.93856789 -1.13034823 21.78872077 -1.13671875 19.63867188 C-1.13959221 13.0202296 -1.07198778 6.54252857 0 0 Z " fill="#383838" transform="translate(371,139)"/>
<path d="M0 0 C0.33 -0.33 0.66 -0.66 1 -1 C3.86267567 -1.07325168 6.700719 -1.09238205 9.5625 -1.0625 C10.36880859 -1.05798828 11.17511719 -1.05347656 12.00585938 -1.04882812 C14.00393756 -1.03700518 16.00197783 -1.01906914 18 -1 C18.495 0.485 18.495 0.485 19 2 C18.67 2.66 18.34 3.32 18 4 C1.5 4 -15 4 -32 4 C-30 0 -30 0 -27 -1 C-25.41728573 -1.04427173 -23.8328449 -1.03932534 -22.25 -1 C-1.13220089 -0.75480059 -1.13220089 -0.75480059 0 0 Z " fill="#0C0C0C" transform="translate(175,33)"/>
<path d="M0 0 C0 0.66 0 1.32 0 2 C-0.99 2 -1.98 2 -3 2 C-3.20625 2.5775 -3.4125 3.155 -3.625 3.75 C-5 6 -5 6 -7.9375 7.875 C-11.21263784 9.77944693 -11.21263784 9.77944693 -12.5625 13.1875 C-14 16 -14 16 -16.6875 16.875 C-17.450625 16.91625 -18.21375 16.9575 -19 17 C-19 17.66 -19 18.32 -19 19 C-19.66 19.33 -20.32 19.66 -21 20 C-21.33 20.99 -21.66 21.98 -22 23 C-23.32 23 -24.64 23 -26 23 C-26 24.65 -26 26.3 -26 28 C-26.66 28.33 -27.32 28.66 -28 29 C-28.33 29.99 -28.66 30.98 -29 32 C-29.66 32 -30.32 32 -31 32 C-33.3734304 39.37510104 -35.12055658 46.77848939 -36.625 54.375 C-36.8415625 55.42171875 -37.058125 56.4684375 -37.28125 57.546875 C-38.70872869 64.68426847 -39.54958371 71.73642749 -40 79 C-40.33 79 -40.66 79 -41 79 C-41.50554521 62.59786645 -40.20477882 44.61007613 -32 30 C-31.34 29.67 -30.68 29.34 -30 29 C-29.30741771 27.00882592 -28.64252365 25.0078864 -28 23 C-27.34 22.01 -26.68 21.02 -26 20 C-25.34 20 -24.68 20 -24 20 C-23.9071875 19.13375 -23.9071875 19.13375 -23.8125 18.25 C-22.66615826 15.07551517 -20.74043158 13.87151425 -18 12 C-17.34 12 -16.68 12 -16 12 C-16 11.01 -16 10.02 -16 9 C-15.1028125 8.5978125 -15.1028125 8.5978125 -14.1875 8.1875 C-11.95732387 7.11977597 -11.95732387 7.11977597 -10.4375 5.375 C-9 4 -9 4 -6 4 C-6 3.34 -6 2.68 -6 2 C-2.25 0 -2.25 0 0 0 Z " fill="#6C6C6C" transform="translate(67,39)"/>
<path d="M0 0 C6.16657387 -0.05032042 12.33302219 -0.08614325 18.49975586 -0.10986328 C20.5873422 -0.119776 22.67491523 -0.13331012 24.76245117 -0.15087891 C48.79774997 -0.34774717 73.27821643 -0.24878078 95 11 C91.59068103 12.13643966 90.99664544 11.86747764 87.8125 10.5625 C87.09707031 10.27503906 86.38164062 9.98757812 85.64453125 9.69140625 C85.10183594 9.46324219 84.55914062 9.23507813 84 9 C84 8.34 84 7.68 84 7 C83.38511719 7.02320313 82.77023437 7.04640625 82.13671875 7.0703125 C80.92435547 7.09738281 80.92435547 7.09738281 79.6875 7.125 C78.88699219 7.14820313 78.08648437 7.17140625 77.26171875 7.1953125 C75 7 75 7 72 5 C64.4214297 3.62057724 56.68221615 3.67912713 49 3.46484375 C47.55410795 3.42176307 46.10822588 3.37834638 44.66235352 3.33460999 C40.88137921 3.22113225 37.1002879 3.11218096 33.31915283 3.00421143 C29.45096782 2.89294143 25.58291255 2.7773363 21.71484375 2.66210938 C14.14334873 2.4371928 6.57172465 2.21706389 -1 2 C-0.67 1.34 -0.34 0.68 0 0 Z " fill="#646464" transform="translate(240,28)"/>
<path d="M0 0 C1.15145508 0.01353516 1.15145508 0.01353516 2.32617188 0.02734375 C4.36338957 0.05220953 6.40046655 0.0880004 8.4375 0.125 C10.52096517 0.125 12.60452225 0.09975192 14.6875 0.0546875 C15.925 0.03664063 17.1625 0.01859375 18.4375 0 C20.29375 -0.03480469 20.29375 -0.03480469 22.1875 -0.0703125 C25.4375 0.125 25.4375 0.125 28.4375 2.125 C29.4275 2.455 30.4175 2.785 31.4375 3.125 C31.4375 3.785 31.4375 4.445 31.4375 5.125 C16.9175 5.125 2.3975 5.125 -12.5625 5.125 C-12.5625 4.135 -12.5625 3.145 -12.5625 2.125 C-8.61286188 -0.55022156 -4.57296724 -0.10033515 0 0 Z " fill="#0B0B0B" transform="translate(234.5625,31.875)"/>
<path d="M0 0 C1.12921875 0.03544922 2.2584375 0.07089844 3.421875 0.10742188 C21.36565887 0.80315887 21.36565887 0.80315887 24.25 3.6875 C26.56952569 3.96851946 28.88885514 4.13532625 31.21875 4.30859375 C31.8890625 4.43363281 32.559375 4.55867188 33.25 4.6875 C33.745 5.6775 33.745 5.6775 34.25 6.6875 C36.53756975 7.45387925 38.85662341 8.12764412 41.1875 8.75 C48.10430464 10.61465232 48.10430464 10.61465232 50.25 11.6875 C50.25 12.3475 50.25 13.0075 50.25 13.6875 C51.24 14.0175 52.23 14.3475 53.25 14.6875 C52.25 15.6875 52.25 15.6875 49.4375 15.8125 C46.82164058 15.70991728 44.7306638 15.45078117 42.25 14.6875 C41.755 12.7075 41.755 12.7075 41.25 10.6875 C40.63125 10.89375 40.0125 11.1 39.375 11.3125 C38.67375 11.43625 37.9725 11.56 37.25 11.6875 C36.59 11.0275 35.93 10.3675 35.25 9.6875 C31.94333595 8.16822192 28.81722008 7.33608547 25.25 6.6875 C23.97125 6.378125 22.6925 6.06875 21.375 5.75 C17.09202088 4.79662185 12.78048905 4.11225758 8.4375 3.5 C7.17292969 3.32082031 5.90835937 3.14164063 4.60546875 2.95703125 C1.61020031 2.71643344 0.04913401 2.92148184 -2.75 3.6875 C-4.6085129 3.57960375 -6.46405911 3.40880993 -8.3125 3.1875 C-11.70916607 2.78192793 -13.46679729 2.5930991 -16.75 3.6875 C-16.75 3.0275 -16.75 2.3675 -16.75 1.6875 C-17.41 1.3575 -18.07 1.0275 -18.75 0.6875 C-12.4108986 -0.52535629 -6.4200569 -0.26388747 0 0 Z " fill="#242424" transform="translate(290.75,30.3125)"/>
<path d="M0 0 C-21.61637059 14.41091373 -65.2588047 7.20124862 -90 7 C-90 6.67 -90 6.34 -90 6 C-89.22922119 5.97494385 -88.45844238 5.9498877 -87.66430664 5.92407227 C-84.13024164 5.80714506 -80.59638084 5.68486177 -77.0625 5.5625 C-75.85013672 5.52318359 -74.63777344 5.48386719 -73.38867188 5.44335938 C-65.78454094 5.17763994 -65.78454094 5.17763994 -58.21484375 4.453125 C-54.44405972 3.98443753 -50.80421813 4.00080034 -47.01049805 4.11523438 C-36.59275642 4.41511296 -26.77165536 3.29434699 -16.52734375 1.42260742 C-10.90517318 0.40167732 -5.71613836 -0.21853815 0 0 Z " fill="#5C5C5C" transform="translate(325,371)"/>
<path d="M0 0 C15.84 0 31.68 0 48 0 C48 0.66 48 1.32 48 2 C42.8053323 2.61288748 37.60875184 3.19600563 32.40673828 3.74316406 C30.27893738 3.9702331 28.15296609 4.21430679 26.02734375 4.4609375 C16.51291678 5.3767647 8.2214337 4.14480127 -1 2 C-0.67 1.34 -0.34 0.68 0 0 Z " fill="#4F4F4F" transform="translate(190,28)"/>
<path d="M0 0 C0.495 0.99 0.495 0.99 1 2 C3.75069134 2.39302445 3.75069134 2.39302445 6.9375 2.5 C12.77847309 2.77847309 12.77847309 2.77847309 15 5 C13.906875 4.979375 12.81375 4.95875 11.6875 4.9375 C8.05615809 4.81455548 8.05615809 4.81455548 5 6 C5 5.34 5 4.68 5 4 C4.236875 4.165 3.47375 4.33 2.6875 4.5 C-1.45947262 5.06230137 -5.43262218 5.02879514 -9.609375 4.9375 C-12.0160556 4.83149234 -12.0160556 4.83149234 -14 6 C-14 5.34 -14 4.68 -14 4 C-20.12660358 3.89788994 -26.09074163 4.2216986 -32.19140625 4.78125 C-34.50426512 4.96138922 -36.74590429 5.03918132 -39.0625 5 C-42.06258675 4.84518016 -42.06258675 4.84518016 -45 6 C-45 5.34 -45 4.68 -45 4 C-46.65 4.33 -48.3 4.66 -50 5 C-48.92285156 3.53417969 -48.92285156 3.53417969 -47 2 C-43.95996094 1.55175781 -43.95996094 1.55175781 -40.234375 1.453125 C-39.22869476 1.42264069 -39.22869476 1.42264069 -38.20269775 1.39154053 C-36.77723638 1.35131754 -35.35156091 1.31815699 -33.92578125 1.29150391 C-31.79870161 1.250929 -29.67326707 1.1881019 -27.546875 1.12109375 C-18.303565 0.86752051 -9.21466833 1.22124856 0 2 C0 1.34 0 0.68 0 0 Z " fill="#222222" transform="translate(188,28)"/>
<path d="M0 0 C0.33 0 0.66 0 1 0 C1.02916504 0.58676514 1.05833008 1.17353027 1.08837891 1.77807617 C1.70700966 13.03693735 2.7933276 23.82537593 5.9375 34.6875 C6.19031738 35.56494873 6.44313477 36.44239746 6.70361328 37.34643555 C7.9744716 41.4830427 9.19722799 44.63829368 12 48 C12.6875 51.25 12.6875 51.25 13 54 C13.99 54.33 14.98 54.66 16 55 C17.203125 56.7421875 17.203125 56.7421875 18.25 58.875 C18.60578125 59.57367188 18.9615625 60.27234375 19.328125 60.9921875 C20 63 20 63 19 66 C18.67 65.01 18.34 64.02 18 63 C16.515 62.505 16.515 62.505 15 62 C12 57.66666667 12 57.66666667 12 55 C11.34 54.67 10.68 54.34 10 54 C9.11689075 52.17840501 8.3171702 50.31594701 7.5625 48.4375 C7.15128906 47.42558594 6.74007812 46.41367187 6.31640625 45.37109375 C5.88199219 44.25863281 5.44757812 43.14617187 5 42 C4.74033447 41.37689941 4.48066895 40.75379883 4.21313477 40.11181641 C2.25571569 35.25445076 1.31323291 30.70186666 0.8125 25.5 C0.73209473 24.73187988 0.65168945 23.96375977 0.56884766 23.17236328 C-0.17361753 15.44534286 -0.19013632 7.75333661 0 0 Z " fill="#4D4D4D" transform="translate(26,285)"/>
<path d="M0 0 C0.66 0.33 1.32 0.66 2 1 C1.85890014 3.10448938 1.71195825 5.2085877 1.5625 7.3125 C1.48128906 8.48425781 1.40007813 9.65601562 1.31640625 10.86328125 C1 14 1 14 0 17 C-0.04384447 18.66608987 -0.0396713 20.33380554 0 22 C0.07413975 25.11386969 -0.00224927 27.00674781 -1 30 C-0.34 30.33 0.32 30.66 1 31 C0.34 31 -0.32 31 -1 31 C-0.7215625 31.9590625 -0.7215625 31.9590625 -0.4375 32.9375 C-0.293125 33.618125 -0.14875 34.29875 0 35 C-0.495 35.495 -0.495 35.495 -1 36 C-1.0505155 37.52781316 -1.03564814 39.05790738 -0.9921875 40.5859375 C-0.96705078 41.98199219 -0.96705078 41.98199219 -0.94140625 43.40625 C-0.89730581 45.3777989 -0.84528341 47.34918728 -0.78515625 49.3203125 C-0.77097656 50.25359375 -0.75679687 51.186875 -0.7421875 52.1484375 C-0.7201123 53.00614746 -0.69803711 53.86385742 -0.67529297 54.74755859 C-1.06667766 57.46253242 -1.90145619 58.30749231 -4 60 C-4.02929984 55.68751453 -4.04689903 51.37505507 -4.0625 47.0625 C-4.07087891 45.85013672 -4.07925781 44.63777344 -4.08789062 43.38867188 C-4.10390318 37.48003904 -3.97876007 31.73114835 -3.21166992 25.87133789 C-2.92015958 23.29414437 -3.01393506 20.7753131 -3.125 18.1875 C-3.20724725 11.79688852 -1.81558132 6.09516587 0 0 Z " fill="#1F1F1F" transform="translate(31,87)"/>
<path d="M0 0 C0.66 0.66 1.32 1.32 2 2 C-0.11234695 9.37074256 -2.30337613 16.26686366 -6 23 C-6.66 23 -7.32 23 -8 23 C-8 23.66 -8 24.32 -8 25 C-8.66 25 -9.32 25 -10 25 C-10.185625 25.825 -10.37125 26.65 -10.5625 27.5 C-12.46181721 32.12442451 -15.34312512 35.60186626 -19 39 C-19.66 39 -20.32 39 -21 39 C-21 39.66 -21 40.32 -21 41 C-21.66 41 -22.32 41 -23 41 C-22.3543999 37.51375944 -21.07639763 34.87501211 -19 32 C-18.01 32 -17.02 32 -16 32 C-15.731875 31.0925 -15.46375 30.185 -15.1875 29.25 C-14.09868368 26.27008166 -13.13608899 24.31409641 -11 22 C-10.34 22 -9.68 22 -9 22 C-9 20.68 -9 19.36 -9 18 C-8.34 17.67 -7.68 17.34 -7 17 C-6.09274566 14.88672575 -6.09274566 14.88672575 -5.375 12.4375 C-5.11460937 11.61121094 -4.85421875 10.78492188 -4.5859375 9.93359375 C-4.39257812 9.29550781 -4.19921875 8.65742188 -4 8 C-3.34 8 -2.68 8 -2 8 C-1.855625 7.4225 -1.71125 6.845 -1.5625 6.25 C-1.04166667 4.16666667 -0.52083333 2.08333333 0 0 Z " fill="#636363" transform="translate(370,317)"/>
<path d="M0 0 C0 0.66 0 1.32 0 2 C-0.98919434 2.02505615 -1.97838867 2.0501123 -2.99755859 2.07592773 C-6.66159404 2.16997787 -10.32543885 2.27020429 -13.98925781 2.37231445 C-15.57612657 2.41567241 -17.16304224 2.45734687 -18.75 2.49731445 C-21.02878979 2.55499632 -23.30734322 2.61869638 -25.5859375 2.68359375 C-26.65320572 2.70866249 -26.65320572 2.70866249 -27.74203491 2.73423767 C-31.49660817 2.79721937 -31.49660817 2.79721937 -35 4 C-36.89280431 4.18095094 -38.78964939 4.3208191 -40.6875 4.4375 C-45.43867136 4.79028159 -49.47578319 5.58618225 -54 7 C-55.32 7 -56.64 7 -58 7 C-58 7.66 -58 8.32 -58 9 C-62.29 9.66 -66.58 10.32 -71 11 C-67.9240979 7.9240979 -66.45709225 7.23194496 -62.4375 5.9375 C-61.46683594 5.61652344 -60.49617188 5.29554687 -59.49609375 4.96484375 C-51.5208642 2.76385861 -43.54638445 1.57548069 -35.3125 0.875 C-33.84864868 0.74762451 -33.84864868 0.74762451 -32.35522461 0.61767578 C-21.57455889 -0.23775503 -10.80604657 -0.19639117 0 0 Z " fill="#6D6D6D" transform="translate(138,28)"/>
<path d="M0 0 C0.33 0.66 0.66 1.32 1 2 C11.56 2 22.12 2 33 2 C33 2.66 33 3.32 33 4 C27.72176551 5.10214358 22.67107371 5.08199807 17.3125 5 C15.62115812 4.97447031 13.92974065 4.95344463 12.23828125 4.9375 C11.1251355 4.92009766 11.1251355 4.92009766 9.98950195 4.90234375 C7.78853413 4.92085716 7.78853413 4.92085716 5 6 C5 5.34 5 4.68 5 4 C4.236875 4.165 3.47375 4.33 2.6875 4.5 C-1.45947262 5.06230137 -5.43262218 5.02879514 -9.609375 4.9375 C-12.0160556 4.83149234 -12.0160556 4.83149234 -14 6 C-14 5.34 -14 4.68 -14 4 C-14.66 3.67 -15.32 3.34 -16 3 C-12.32612505 2.14701624 -8.9552607 1.89210529 -5.1875 1.9375 C-4.21167969 1.94652344 -3.23585937 1.95554687 -2.23046875 1.96484375 C-1.49441406 1.97644531 -0.75835937 1.98804687 0 2 C0 1.34 0 0.68 0 0 Z " fill="#212121" transform="translate(238,28)"/>
<path d="M0 0 C7.62225648 1.36998337 15.51018693 1.30530473 23.23828125 1.58203125 C23.73328125 2.57203125 23.73328125 2.57203125 24.23828125 3.58203125 C8.06828125 3.58203125 -8.10171875 3.58203125 -24.76171875 3.58203125 C-24.76171875 3.25203125 -24.76171875 2.92203125 -24.76171875 2.58203125 C-21.79171875 2.58203125 -18.82171875 2.58203125 -15.76171875 2.58203125 C-15.76171875 1.92203125 -15.76171875 1.26203125 -15.76171875 0.58203125 C-9.96398246 -1.23851396 -5.85956035 -1.44853565 0 0 Z " fill="#4E4E4E" transform="translate(209.76171875,374.41796875)"/>
<path d="M0 0 C1.69304563 2.95111907 2.25221572 5.0428661 2.1875 8.4375 C2.17332031 9.22640625 2.15914062 10.0153125 2.14453125 10.828125 C2 13 2 13 1.375 15.6875 C0.86049879 18.86025745 1.83643821 21.05687313 3 24 C2.67 24.33 2.34 24.66 2 25 C1.9494845 26.52781316 1.96435186 28.05790738 2.0078125 29.5859375 C2.03294922 30.98199219 2.03294922 30.98199219 2.05859375 32.40625 C2.10269419 34.3777989 2.15471659 36.34918728 2.21484375 38.3203125 C2.22902344 39.25359375 2.24320313 40.186875 2.2578125 41.1484375 C2.2798877 42.00614746 2.30196289 42.86385742 2.32470703 43.74755859 C1.93332234 46.46253242 1.09854381 47.30749231 -1 49 C-0.98839844 48.41476563 -0.97679688 47.82953125 -0.96484375 47.2265625 C-0.90966686 41.97687535 -1.05601232 36.78281219 -1.40893555 31.54711914 C-2.11641552 20.9641635 -2.30814651 10.42578041 0 0 Z " fill="#232323" transform="translate(28,198)"/>
<path d="M0 0 C1.4375 1 1.4375 1 3 3 C3.48811943 5.72411559 3.81074649 8.2549172 4 11 C4.05430176 11.69544922 4.10860352 12.39089844 4.16455078 13.10742188 C4.32258155 15.32086887 4.44813613 17.53387714 4.5625 19.75 C4.6049585 20.55477783 4.64741699 21.35955566 4.69116211 22.1887207 C5.13500557 31.45763681 5.08797737 40.72327494 5 50 C4.01 50.495 4.01 50.495 3 51 C2.03279505 44.10866472 1.94799034 37.40958685 2.0625 30.453125 C2.00842953 27.46573178 1.70620798 24.89103894 1 22 C1.66 22 2.32 22 3 22 C2.690625 20.783125 2.38125 19.56625 2.0625 18.3125 C0.70131794 12.26923779 0.36241197 6.17054072 0 0 Z " fill="#272727" transform="translate(368,87)"/>
<path d="M0 0 C2.64 0.33 5.28 0.66 8 1 C8.33 1.99 8.66 2.98 9 4 C11.31 4 13.62 4 16 4 C16 4.66 16 5.32 16 6 C17.14275391 6.09087891 17.14275391 6.09087891 18.30859375 6.18359375 C19.85740234 6.30927734 19.85740234 6.30927734 21.4375 6.4375 C22.95150391 6.55931641 22.95150391 6.55931641 24.49609375 6.68359375 C27.08844915 6.91768604 29.65897351 7.19480372 32.2421875 7.50390625 C38.2950776 8.18878984 44.36350417 8.37296831 50.44726562 8.60546875 C55.04420248 8.79909427 59.47362828 9.09922951 64 10 C64 10.33 64 10.66 64 11 C54.46504987 11.25239574 45.06849385 10.89714223 35.5625 10.125 C34.55703125 10.04652832 33.5515625 9.96805664 32.515625 9.88720703 C26.52914293 9.3708234 20.82646988 8.45643632 15 7 C13.96230469 6.76539063 12.92460938 6.53078125 11.85546875 6.2890625 C10.53482422 5.96035156 10.53482422 5.96035156 9.1875 5.625 C8.29417969 5.41101563 7.40085937 5.19703125 6.48046875 4.9765625 C3.57491472 3.83264359 2.04933282 2.32162179 0 0 Z " fill="#737373" transform="translate(67,367)"/>
<path d="M0 0 C2.1687949 -0.10992265 2.1687949 -0.10992265 4.0625 -0.5 C7.77509462 -0.97144059 10.37799779 -0.75809349 14 0 C14.99 0 15.98 0 17 0 C17 0.66 17 1.32 17 2 C15.35 2 13.7 2 12 2 C12 2.66 12 3.32 12 4 C10.41773035 4.19627391 8.83410729 4.38165538 7.25 4.5625 C6.36828125 4.66691406 5.4865625 4.77132813 4.578125 4.87890625 C2.05367123 4.99747908 0.42240514 4.60574268 -2 4 C-3.34371209 3.88237142 -4.69104957 3.80144363 -6.0390625 3.75390625 C-7.15667969 3.70459961 -7.15667969 3.70459961 -8.296875 3.65429688 C-9.8566106 3.59279723 -11.41651919 3.53554627 -12.9765625 3.48242188 C-18.78479726 3.21520274 -18.78479726 3.21520274 -21 1 C-18.81457668 0.63323686 -16.62651594 0.282173 -14.4375 -0.0625 C-13.21933594 -0.25972656 -12.00117188 -0.45695312 -10.74609375 -0.66015625 C-6.93316402 -1.00606333 -3.76388781 -0.6034737 0 0 Z " fill="#252525" transform="translate(182,373)"/>
<path d="M0 0 C0.33 0 0.66 0 1 0 C1.08789644 3.83318619 1.14069087 7.66610928 1.1875 11.5 C1.22520508 13.11648438 1.22520508 13.11648438 1.26367188 14.765625 C1.32314008 21.26748241 0.73652596 26.08163414 -2 32 C-2.66 32 -3.32 32 -4 32 C-4.66 34.97 -5.32 37.94 -6 41 C-7.32 41 -8.64 41 -10 41 C-9.54625 40.113125 -9.0925 39.22625 -8.625 38.3125 C-6.0510091 33.06551854 -4.81404225 28.800051 -4 23 C-3.649375 21.989375 -3.29875 20.97875 -2.9375 19.9375 C-1.935815 16.798887 -1.84414325 14.27299168 -2 11 C-1.34 11 -0.68 11 0 11 C-0.08378906 10.28972656 -0.16757812 9.57945312 -0.25390625 8.84765625 C-0.35574219 7.92855469 -0.45757812 7.00945312 -0.5625 6.0625 C-0.66691406 5.14597656 -0.77132813 4.22945313 -0.87890625 3.28515625 C-0.91886719 2.53105469 -0.95882813 1.77695312 -1 1 C-0.67 0.67 -0.34 0.34 0 0 Z " fill="#1C1C1C" transform="translate(370,293)"/>
<path d="M0 0 C0.66 0.33 1.32 0.66 2 1 C1.27683594 1.77923828 1.27683594 1.77923828 0.5390625 2.57421875 C-2.82594733 6.2894643 -5.25670568 9.26820113 -7 14 C-7.84917379 15.04241526 -8.7268069 16.06201269 -9.625 17.0625 C-12.4191481 19.88883613 -12.4191481 19.88883613 -12 24 C-12.97753644 25.02196992 -13.9805881 26.01979625 -15 27 C-16.19027984 29.59915538 -16.19027984 29.59915538 -17 32 C-17.33 32 -17.66 32 -18 32 C-17.38692869 19.92883728 -17.38692869 19.92883728 -14 16 C-13.34 16 -12.68 16 -12 16 C-11.67 14.68 -11.34 13.36 -11 12 C-10.34 12 -9.68 12 -9 12 C-9 10.35 -9 8.7 -9 7 C-7.68 7 -6.36 7 -5 7 C-4.67 5.68 -4.34 4.36 -4 3 C-3.34 3 -2.68 3 -2 3 C-2 2.34 -2 1.68 -2 1 C-1.34 0.67 -0.68 0.34 0 0 Z " fill="#252525" transform="translate(50,55)"/>
<path d="M0 0 C0.75410156 0.05220703 1.50820312 0.10441406 2.28515625 0.15820312 C4.1487937 0.28795004 6.01194996 0.42457488 7.875 0.5625 C5.51546906 2.92203094 4.09604383 3.05391413 0.875 3.5625 C0.875 2.9025 0.875 2.2425 0.875 1.5625 C0.34003906 1.89121094 -0.19492188 2.21992187 -0.74609375 2.55859375 C-3.71941171 3.81334369 -5.97231964 3.72460286 -9.1875 3.625 C-12.60078827 3.52795967 -14.86945729 3.4773191 -18.125 4.5625 C-18.785 4.5625 -19.445 4.5625 -20.125 4.5625 C-21.2696875 5.3359375 -21.2696875 5.3359375 -22.4375 6.125 C-25.64502745 7.84065422 -26.72154692 7.5477101 -30.125 6.5625 C-31.115 6.5625 -32.105 6.5625 -33.125 6.5625 C-33.125 5.9025 -33.125 5.2425 -33.125 4.5625 C-26.24642725 2.40956089 -19.76145229 1.16683159 -12.55859375 0.7734375 C-1.94743453 -0.14630985 -1.94743453 -0.14630985 0 0 Z " fill="#202020" transform="translate(113.125,30.4375)"/>
<path d="M0 0 C0.66 0.33 1.32 0.66 2 1 C2.13157062 11.89112359 1.86433415 22.71687896 1.26782227 33.59399414 C1.21940186 34.54266357 1.17098145 35.49133301 1.12109375 36.46875 C1.0739624 37.31888672 1.02683105 38.16902344 0.97827148 39.04492188 C0.77219701 41.00526531 0.77219701 41.00526531 2 42 C2.04080783 43.99958364 2.04254356 46.00045254 2 48 C1.01 48.495 1.01 48.495 0 49 C-1.07510074 41.36337173 -1.15325024 33.78745694 -1.13037109 26.08862305 C-1.12500267 23.93856789 -1.13034823 21.78872077 -1.13671875 19.63867188 C-1.13959221 13.0202296 -1.07198778 6.54252857 0 0 Z " fill="#1F1F1F" transform="translate(371,189)"/>
<path d="M0 0 C0.66 0.33 1.32 0.66 2 1 C2.13157062 11.89112359 1.86433415 22.71687896 1.26782227 33.59399414 C1.21940186 34.54266357 1.17098145 35.49133301 1.12109375 36.46875 C1.0739624 37.31888672 1.02683105 38.16902344 0.97827148 39.04492188 C0.77219701 41.00526531 0.77219701 41.00526531 2 42 C2.04080783 43.99958364 2.04254356 46.00045254 2 48 C1.01 48.495 1.01 48.495 0 49 C-1.07510074 41.36337173 -1.15325024 33.78745694 -1.13037109 26.08862305 C-1.12500267 23.93856789 -1.13034823 21.78872077 -1.13671875 19.63867188 C-1.13959221 13.0202296 -1.07198778 6.54252857 0 0 Z " fill="#1F1F1F" transform="translate(371,139)"/>
<path d="M0 0 C3.465 1.485 3.465 1.485 7 3 C7 3.66 7 4.32 7 5 C7.99 5 8.98 5 10 5 C10 5.66 10 6.32 10 7 C11.65 7.33 13.3 7.66 15 8 C15.061875 8.94875 15.12375 9.8975 15.1875 10.875 C15.455625 11.90625 15.72375 12.9375 16 14 C18.46255685 15.45291273 18.46255685 15.45291273 21 16 C20.34 16.66 19.68 17.32 19 18 C18.34 17.67 17.68 17.34 17 17 C17 16.34 17 15.68 17 15 C15.9171875 14.62875 15.9171875 14.62875 14.8125 14.25 C11.7264767 12.87843409 9.57114208 11.17558176 7 9 C6.236875 8.46375 5.47375 7.9275 4.6875 7.375 C4.130625 6.92125 3.57375 6.4675 3 6 C3 5.34 3 4.68 3 4 C2.34 4 1.68 4 1 4 C1 3.34 1 2.68 1 2 C0.34 1.67 -0.32 1.34 -1 1 C-0.67 0.67 -0.34 0.34 0 0 Z " fill="#353535" transform="translate(46,350)"/>
<path d="M0 0 C0 0.66 0 1.32 0 2 C-0.99 2 -1.98 2 -3 2 C-3.309375 2.86625 -3.309375 2.86625 -3.625 3.75 C-5 6 -5 6 -7.9375 7.875 C-11.21263784 9.77944693 -11.21263784 9.77944693 -12.5625 13.1875 C-14 16 -14 16 -16.6875 16.875 C-17.450625 16.91625 -18.21375 16.9575 -19 17 C-19 17.66 -19 18.32 -19 19 C-19.66 19 -20.32 19 -21 19 C-20.75 16.625 -20.75 16.625 -20 14 C-17.9375 12.6875 -17.9375 12.6875 -16 12 C-16 11.01 -16 10.02 -16 9 C-15.1028125 8.5978125 -15.1028125 8.5978125 -14.1875 8.1875 C-11.95732387 7.11977597 -11.95732387 7.11977597 -10.4375 5.375 C-9 4 -9 4 -6 4 C-6 3.34 -6 2.68 -6 2 C-2.25 0 -2.25 0 0 0 Z " fill="#747474" transform="translate(67,39)"/>
<path d="M0 0 C-1.125 1.5 -1.125 1.5 -3 3 C-6.1875 3.1875 -6.1875 3.1875 -9 3 C-9.33 3.99 -9.66 4.98 -10 6 C-11.98600337 7.3540932 -13.98817543 8.68457624 -16 10 C-16.845625 10.86625 -17.69125 11.7325 -18.5625 12.625 C-21.00413003 15.00402413 -22.7841769 15.98931274 -26 17 C-24.31754246 12.21146701 -22.72726334 10.02813294 -18.375 7.4375 C-15.88809625 6.22087094 -15.88809625 6.22087094 -15 4 C-14.01 4 -13.02 4 -12 4 C-12 3.34 -12 2.68 -12 2 C-7.82262526 0.40861915 -4.46839215 -0.21278058 0 0 Z " fill="#292929" transform="translate(79,37)"/>
<path d="M0 0 C3 0 3 0 5 1 C5 1.66 5 2.32 5 3 C5.99 3 6.98 3 8 3 C8.33 2.34 8.66 1.68 9 1 C9 1.99 9 2.98 9 4 C9.99 3.67 10.98 3.34 12 3 C16.07260203 2.74546237 17.52728445 2.6848563 21 5 C23.32108669 5.70812814 25.65377147 6.38024152 28 7 C28 7.33 28 7.66 28 8 C20.7725395 8.24091535 14.09705662 7.34495828 7 6 C7 5.34 7 4.68 7 4 C4.69 4 2.38 4 0 4 C-0.33 3.01 -0.66 2.02 -1 1 C-0.67 0.67 -0.34 0.34 0 0 Z " fill="#242424" transform="translate(76,367)"/>
<path d="M0 0 C0.66 0.33 1.32 0.66 2 1 C2.12569367 11.1532552 1.96840696 21.28913179 1.625 31.4375 C1.59414307 32.54536865 1.56328613 33.6532373 1.53149414 34.79467773 C1.4927417 35.83052002 1.45398926 36.8663623 1.4140625 37.93359375 C1.36693115 39.3266272 1.36693115 39.3266272 1.31884766 40.74780273 C1 43 1 43 -1 45 C-1.02486464 39.87711941 -1.04293752 34.75427458 -1.05493164 29.63134766 C-1.05993604 27.89143257 -1.06674159 26.15152164 -1.07543945 24.41162109 C-1.08767662 21.89940358 -1.09326739 19.38724206 -1.09765625 16.875 C-1.10281754 16.10696045 -1.10797882 15.3389209 -1.11329651 14.54760742 C-1.11380013 9.61241308 -0.70049068 4.88646786 0 0 Z " fill="#1F1F1F" transform="translate(371,239)"/>
<path d="M0 0 C0.66 0.66 1.32 1.32 2 2 C-7.37611749 3.96166997 -16.3341417 5.37097222 -25.9375 4.8125 C-26.69981934 4.7700415 -27.46213867 4.72758301 -28.24755859 4.68383789 C-31.919316 4.40385911 -33.88002897 4.07998069 -37 2 C-35.34385343 1.61781233 -33.67542976 1.28604898 -32 1 C-31.67 1.33 -31.34 1.66 -31 2 C-22.39175798 2.56425977 -14.01205049 1.82373343 -5.51171875 0.53588867 C-3.6837791 0.27899482 -1.84129695 0.1303201 0 0 Z " fill="#1E1E1E" transform="translate(308,371)"/>
<path d="M0 0 C0.66 0 1.32 0 2 0 C1.49246016 5.68444622 0.60375815 11.21553192 -0.5 16.8125 C-1.81596875 23.52346671 -2.62453116 30.16387764 -3 37 C-3.33 37 -3.66 37 -4 37 C-4.38414844 24.53651732 -3.50564472 12.01935333 0 0 Z " fill="#676767" transform="translate(30,81)"/>
<path d="M0 0 C0.33 0 0.66 0 1 0 C1.0501123 0.65484375 1.10022461 1.3096875 1.15185547 1.984375 C1.38588768 4.9901765 1.63036805 7.99504335 1.875 11 C1.95363281 12.02996094 2.03226563 13.05992187 2.11328125 14.12109375 C2.59784043 19.97307773 3.48243201 25.33441284 5 31 C5.15006681 33.36468911 5.09883767 35.62789596 5 38 C4.34 37.67 3.68 37.34 3 37 C2.02120717 33.05923931 1.55936729 29.01952421 1 25 C0.88527344 24.26265625 0.77054688 23.5253125 0.65234375 22.765625 C-0.38449594 15.23028305 -0.08379407 7.58801874 0 0 Z " fill="#646464" transform="translate(26,285)"/>
<path d="M0 0 C0.66 0.33 1.32 0.66 2 1 C-2.63805937 5.16236098 -7.47528194 8.13719155 -13 11 C-13.68835938 11.39832031 -14.37671875 11.79664063 -15.0859375 12.20703125 C-17 13 -17 13 -20 12 C-17.13301658 8.50586395 -15.15849852 6.71163126 -10.6875 6.1875 C-8.8621875 6.0946875 -8.8621875 6.0946875 -7 6 C-7 5.34 -7 4.68 -7 4 C-5.68 4 -4.36 4 -3 4 C-3 3.34 -3 2.68 -3 2 C-2.01 1.34 -1.02 0.68 0 0 Z " fill="#727272" transform="translate(345,358)"/>
<path d="M0 0 C6.29923092 5.58136985 7.71456103 15.0505748 9 23 C7 21.4375 7 21.4375 5 19 C4.75 15.25 4.75 15.25 5 12 C4.34 12 3.68 12 3 12 C2.49663233 10.37604003 1.99741024 8.75079459 1.5 7.125 C1.2215625 6.22007813 0.943125 5.31515625 0.65625 4.3828125 C0 2 0 2 0 0 Z " fill="#6A6A6A" transform="translate(363,68)"/>
<path d="M0 0 C0.80630859 0.03544922 1.61261719 0.07089844 2.44335938 0.10742188 C3.21873047 0.15060547 3.99410156 0.19378906 4.79296875 0.23828125 C5.49317139 0.27606689 6.19337402 0.31385254 6.91479492 0.3527832 C8.8125 0.6875 8.8125 0.6875 11.8125 2.6875 C10.74 2.666875 9.6675 2.64625 8.5625 2.625 C5.08705116 2.52237373 5.08705116 2.52237373 2.92578125 3.22265625 C0.22885275 3.81588082 -2.01404331 3.51507032 -4.75 3.1875 C-8.14666607 2.78192793 -9.90429729 2.5930991 -13.1875 3.6875 C-13.1875 3.0275 -13.1875 2.3675 -13.1875 1.6875 C-13.8475 1.3575 -14.5075 1.0275 -15.1875 0.6875 C-10.01227355 -0.42088183 -5.23828309 -0.31013355 0 0 Z " fill="#1D1D1D" transform="translate(287.1875,30.3125)"/>
<path d="M0 0 C-1 3 -1 3 -4 5 C-6.38677076 5.29452584 -8.78626094 5.4928217 -11.1875 5.625 C-12.45980469 5.69976562 -13.73210937 5.77453125 -15.04296875 5.8515625 C-16.50669922 5.92503906 -16.50669922 5.92503906 -18 6 C-13.74982059 3.16654706 -4.97760066 -2.48880033 0 0 Z " fill="#252525" transform="translate(329,366)"/>
<path d="M0 0 C-0.33 0.66 -0.66 1.32 -1 2 C-6.94 2 -12.88 2 -19 2 C-19 1.34 -19 0.68 -19 0 C-12.11868574 -2.16079916 -6.93081189 -1.88101367 0 0 Z " fill="#2E2E2E" transform="translate(163,375)"/>
<path d="M0 0 C6.51639163 0.96539135 10.52624862 6.50245927 14.7421875 11.09765625 C15.15726562 11.72542969 15.57234375 12.35320313 16 13 C15.67 13.99 15.34 14.98 15 16 C15 15.34 15 14.68 15 14 C14.34 14 13.68 14 13 14 C11.33333333 12.33333333 9.66666667 10.66666667 8 9 C7.13375 8.525625 6.2675 8.05125 5.375 7.5625 C2.30318602 5.54156975 1.40851996 3.33596834 0 0 Z " fill="#828282" transform="translate(343,46)"/>
<path d="M0 0 C0.66 0 1.32 0 2 0 C1.40716913 3.60571107 -0.02741777 5.54429438 -2.4375 8.25 C-3.05496094 8.95640625 -3.67242187 9.6628125 -4.30859375 10.390625 C-6 12 -6 12 -8 12 C-8 12.66 -8 13.32 -8 14 C-8.66 14 -9.32 14 -10 14 C-9.35008857 10.49047825 -8.11917763 7.87602678 -6 5 C-4.35008418 4.29289322 -2.68437744 3.62056011 -1 3 C-0.67 2.01 -0.34 1.02 0 0 Z " fill="#5B5B5B" transform="translate(357,344)"/>
<path d="M0 0 C0.33 1.32 0.66 2.64 1 4 C0.34 4 -0.32 4 -1 4 C-1.268125 4.53625 -1.53625 5.0725 -1.8125 5.625 C-2.204375 6.40875 -2.59625 7.1925 -3 8 C-3.433125 9.010625 -3.86625 10.02125 -4.3125 11.0625 C-6.18489343 14.32185153 -7.58172875 15.50998433 -11 17 C-11.66 16.67 -12.32 16.34 -13 16 C-10.66666667 13.66666667 -8.33333333 11.33333333 -6 9 C-5.71125 8.21625 -5.4225 7.4325 -5.125 6.625 C-3.87092493 3.69882485 -2.34733907 2.11260516 0 0 Z " fill="#1C1C1C" transform="translate(360,335)"/>
<path d="M0 0 C1.45703125 0.98828125 1.45703125 0.98828125 3 3 C3.37674518 5.79251583 3.60191941 8.38779201 3.6875 11.1875 C3.72166016 11.93708984 3.75582031 12.68667969 3.79101562 13.45898438 C3.87334294 15.30546838 3.93835281 17.15270994 4 19 C2.54296875 18.01171875 2.54296875 18.01171875 1 16 C0.62325482 13.20748417 0.39808059 10.61220799 0.3125 7.8125 C0.27833984 7.06291016 0.24417969 6.31332031 0.20898438 5.54101562 C0.12665706 3.69453162 0.06164719 1.84729006 0 0 Z " fill="#2B2B2B" transform="translate(368,87)"/>
<path d="M0 0 C0.66 0 1.32 0 2 0 C2 0.66 2 1.32 2 2 C2.66 2 3.32 2 4 2 C4 2.66 4 3.32 4 4 C4.66 4 5.32 4 6 4 C7.42258812 7.82320557 8.24042276 10.91281305 8 15 C4.88614147 12.19752732 3.32189206 9.96567618 2 6 C1.62875 4.906875 1.2575 3.81375 0.875 2.6875 C0.58625 1.800625 0.2975 0.91375 0 0 Z " fill="#363636" transform="translate(356,60)"/>
<path d="M0 0 C-2.85276137 2.93200474 -5.65079784 5.64315404 -9 8 C-9.66 7.67 -10.32 7.34 -11 7 C-8.53661745 2.20288662 -5.72998459 -1.90999486 0 0 Z " fill="#1D1D1D" transform="translate(64,46)"/>
<path d="M0 0 C2.86724686 0.57344937 3.8614515 0.8614515 6 3 C6.99 3.33 7.98 3.66 9 4 C9 4.66 9 5.32 9 6 C9.99 6.33 10.98 6.66 12 7 C10 8 10 8 6.5625 7.1875 C3 6 3 6 0 4 C0 2.68 0 1.36 0 0 Z " fill="#2C2C2C" transform="translate(62,360)"/>
<path d="M0 0 C2.31 0.33 4.62 0.66 7 1 C7.061875 1.78375 7.12375 2.5675 7.1875 3.375 C7.455625 4.24125 7.72375 5.1075 8 6 C10.47636012 7.37466625 10.47636012 7.37466625 13 8 C12.34 8.66 11.68 9.32 11 10 C10.34 9.67 9.68 9.34 9 9 C9 8.34 9 7.68 9 7 C8.2575 6.7525 7.515 6.505 6.75 6.25 C3.78592854 4.90269479 2.12500716 3.43982304 0 1 C0 0.67 0 0.34 0 0 Z " fill="#686868" transform="translate(54,358)"/>
<path d="M0 0 C4.7381224 2.46017894 7.99520204 4.43270711 11 9 C11 9.66 11 10.32 11 11 C10.34 11 9.68 11 9 11 C9 10.34 9 9.68 9 9 C8.2575 8.95875 7.515 8.9175 6.75 8.875 C2.87195699 7.64107722 1.91706439 5.47911685 0 2 C0 1.34 0 0.68 0 0 Z " fill="#2F2F2F" transform="translate(44,344)"/>
<path d="M0 0 C0.33 0 0.66 0 1 0 C0.68676801 7.36095182 -0.93914605 13.30883089 -4 20 C-4.99 19.67 -5.98 19.34 -7 19 C-6.54625 18.113125 -6.0925 17.22625 -5.625 16.3125 C-3.05834789 11.08047838 -1.78059443 6.79870147 -1 1 C-0.67 0.67 -0.34 0.34 0 0 Z " fill="#1C1C1C" transform="translate(367,315)"/>
<path d="M0 0 C2.64 0.33 5.28 0.66 8 1 C8.33 1.99 8.66 2.98 9 4 C11.31 4 13.62 4 16 4 C16 4.66 16 5.32 16 6 C10.35966205 5.50523351 6.05786581 4.58054378 1 2 C0.67 1.34 0.34 0.68 0 0 Z " fill="#646464" transform="translate(67,367)"/>
<path d="M0 0 C0.33 0 0.66 0 1 0 C1.19601027 2.70795726 1.38204839 5.41599805 1.5625 8.125 C1.61857422 8.88554687 1.67464844 9.64609375 1.73242188 10.4296875 C2.01291182 14.76793198 2.10684353 18.74494883 1 23 C0.34 23.33 -0.32 23.66 -1 24 C-0.67 16.08 -0.34 8.16 0 0 Z " fill="#1D1D1D" transform="translate(28,223)"/>
<path d="M0 0 C0.33 0 0.66 0 1 0 C1.19601027 2.70795726 1.38204839 5.41599805 1.5625 8.125 C1.61857422 8.88554687 1.67464844 9.64609375 1.73242188 10.4296875 C2.01291182 14.76793198 2.10684353 18.74494883 1 23 C0.34 23.33 -0.32 23.66 -1 24 C-0.67 16.08 -0.34 8.16 0 0 Z " fill="#1D1D1D" transform="translate(28,173)"/>
<path d="M0 0 C0.66 0.33 1.32 0.66 2 1 C1.3125 3.4375 1.3125 3.4375 0 6 C-2.625 6.8125 -2.625 6.8125 -5 7 C-5 7.66 -5 8.32 -5 9 C-5.66 9 -6.32 9 -7 9 C-6.875 6.75 -6.875 6.75 -6 4 C-2.9375 1.6875 -2.9375 1.6875 0 0 Z " fill="#474747" transform="translate(53,49)"/>
<path d="M0 0 C0.33 0 0.66 0 1 0 C1.33266291 6.20970773 0.45029331 10.28264895 -2 16 C-2.33 16 -2.66 16 -3 16 C-2.67 11.71 -2.34 7.42 -2 3 C-1.34 3 -0.68 3 0 3 C0 2.01 0 1.02 0 0 Z " fill="#323232" transform="translate(370,309)"/>
<path d="M0 0 C-2.125 2.0625 -2.125 2.0625 -5 4 C-8.125 3.75 -8.125 3.75 -11 3 C-11.99 3 -12.98 3 -14 3 C-14 2.34 -14 1.68 -14 1 C-12.04310963 0.63794536 -10.08442332 0.28558579 -8.125 -0.0625 C-7.03445312 -0.25972656 -5.94390625 -0.45695312 -4.8203125 -0.66015625 C-2 -1 -2 -1 0 0 Z " fill="#191919" transform="translate(94,34)"/>
<path d="M0 0 C0.69287109 0.00451172 1.38574219 0.00902344 2.09960938 0.01367188 C3.79561068 0.02536844 5.49156703 0.04330076 7.1875 0.0625 C7.1875 0.3925 7.1875 0.7225 7.1875 1.0625 C6.40246094 1.11148438 5.61742188 1.16046875 4.80859375 1.2109375 C-2.09846289 1.64299583 -2.09846289 1.64299583 -8.8125 3.1875 C-11.75384336 4.04539181 -13.01607309 4.18107077 -15.8125 3.0625 C-10.78198894 -0.29117404 -5.8984437 -0.07337777 0 0 Z " fill="#4A4A4A" transform="translate(95.8125,30.9375)"/>
<path d="M0 0 C0.99 0 1.98 0 3 0 C3 0.66 3 1.32 3 2 C1.35 2 -0.3 2 -2 2 C-2.33 2.66 -2.66 3.32 -3 4 C-5.31 3.34 -7.62 2.68 -10 2 C-10 1.34 -10 0.68 -10 0 C-6.28597026 -1.23800991 -3.83008202 -0.6155489 0 0 Z " fill="#1A1A1A" transform="translate(246,373)"/>
<path d="M0 0 C0.99 0 1.98 0 3 0 C3 0.66 3 1.32 3 2 C1.35 2 -0.3 2 -2 2 C-2.33 2.66 -2.66 3.32 -3 4 C-5.31 3.34 -7.62 2.68 -10 2 C-10 1.34 -10 0.68 -10 0 C-6.28597026 -1.23800991 -3.83008202 -0.6155489 0 0 Z " fill="#1A1A1A" transform="translate(196,373)"/>
<path d="M0 0 C0.99 0 1.98 0 3 0 C3 0.66 3 1.32 3 2 C1.35 2 -0.3 2 -2 2 C-2.33 2.66 -2.66 3.32 -3 4 C-5.31 3.34 -7.62 2.68 -10 2 C-10 1.34 -10 0.68 -10 0 C-6.28597026 -1.23800991 -3.83008202 -0.6155489 0 0 Z " fill="#1A1A1A" transform="translate(146,373)"/>
<path d="M0 0 C1.79453113 3.58906225 2.29343623 4.80693713 2.3125 8.5625 C2.33763672 9.70912109 2.33763672 9.70912109 2.36328125 10.87890625 C2 13 2 13 -1 16 C-0.67 10.72 -0.34 5.44 0 0 Z " fill="#1D1D1D" transform="translate(28,131)"/>
<path d="M0 0 C1.98 0.66 3.96 1.32 6 2 C6 2.66 6 3.32 6 4 C6.99 4.33 7.98 4.66 9 5 C8 6 8 6 4.9375 6.0625 C3.968125 6.041875 2.99875 6.02125 2 6 C1.34 4.02 0.68 2.04 0 0 Z " fill="#5C5C5C" transform="translate(335,40)"/>
<path d="M0 0 C2.60578866 0.08695958 5.2081279 0.19381408 7.8125 0.3125 C8.55048828 0.33505859 9.28847656 0.35761719 10.04882812 0.38085938 C15.54974762 0.6546608 15.54974762 0.6546608 18.01171875 2.54296875 C18.50091797 3.26419922 18.50091797 3.26419922 19 4 C18.4534375 3.83242188 17.906875 3.66484375 17.34375 3.4921875 C13.7744998 2.74264496 10.28313686 3.08842493 6.65625 3.2578125 C3.56121884 2.95741242 2.27878245 2.053054 0 0 Z " fill="#303030" transform="translate(296,31)"/>
<path d="M0 0 C1.5 1.375 1.5 1.375 3 3 C3 3.66 3 4.32 3 5 C3.66 5 4.32 5 5 5 C5.33 7.97 5.66 10.94 6 14 C5.34 13.01 4.68 12.02 4 11 C3.484375 10.4225 2.96875 9.845 2.4375 9.25 C0.52014306 6.24891958 0.33698487 3.50464261 0 0 Z " fill="#1B1B1B" transform="translate(33,322)"/>
<path d="M0 0 C0.66 0.66 1.32 1.32 2 2 C-1.79267192 2.9360342 -4.93674565 2.98276252 -8.8125 2.5625 C-9.78832031 2.46066406 -10.76414062 2.35882813 -11.76953125 2.25390625 C-12.87361328 2.12822266 -12.87361328 2.12822266 -14 2 C-9.02187706 -1.31874863 -5.89382207 -1.20059339 0 0 Z " fill="#1B1B1B" transform="translate(132,373)"/>
<path d="M0 0 C2.64 0 5.28 0 8 0 C4.55080374 2.29946417 1.8618978 2.80769035 -2.1875 3.625 C-4.09595703 4.01558594 -4.09595703 4.01558594 -6.04296875 4.4140625 C-7.50669922 4.70410156 -7.50669922 4.70410156 -9 5 C-8.67 4.34 -8.34 3.68 -8 3 C-5.35139573 2.40644386 -2.70802678 2.25790731 0 2 C0 1.34 0 0.68 0 0 Z " fill="#717171" transform="translate(317,371)"/>
<path d="M0 0 C0.33 0 0.66 0 1 0 C2.46670113 5.22512279 3.22577402 9.5814234 3 15 C0.43435189 12.43435189 -0.13640893 10.52079438 -1 7 C-0.625 3.125 -0.625 3.125 0 0 Z " fill="#525252" transform="translate(31,317)"/>
<path d="M0 0 C0.66 1.32 1.32 2.64 2 4 C1.54625 4.391875 1.0925 4.78375 0.625 5.1875 C-1.27642919 7.30832487 -2.06204028 9.33042235 -3 12 C-3.33 12 -3.66 12 -4 12 C-4.17942163 8.05272412 -4.09350689 5.4019487 -2 2 C-1.34 2 -0.68 2 0 2 C0 1.34 0 0.68 0 0 Z " fill="#1D1D1D" transform="translate(36,75)"/>
<path d="M0 0 C0.66 0 1.32 0 2 0 C1.88490339 1.41750563 1.75746342 2.83401169 1.625 4.25 C1.55539063 5.03890625 1.48578125 5.8278125 1.4140625 6.640625 C0.98492887 9.085877 0.21399362 10.84836903 -1 13 C-1.02708567 11.39592672 -1.04643483 9.7917215 -1.0625 8.1875 C-1.07410156 7.29417969 -1.08570312 6.40085937 -1.09765625 5.48046875 C-1 3 -1 3 0 0 Z " fill="#555555" transform="translate(30,81)"/>
<path d="M0 0 C4.51720311 -0.36625971 4.51720311 -0.36625971 6.8125 1.375 C8 3 8 3 8 5 C7.01 5.33 6.02 5.66 5 6 C4.67 5.01 4.34 4.02 4 3 C3.01 3 2.02 3 1 3 C0.67 2.01 0.34 1.02 0 0 Z " fill="#282828" transform="translate(338,46)"/>
<path d="M0 0 C3.23490776 0.55774272 4.97855006 1.37211508 7 4 C7 4.99 7 5.98 7 7 C5.1875 6.875 5.1875 6.875 3 6 C1.25 2.9375 1.25 2.9375 0 0 Z " fill="#5D5D5D" transform="translate(343,46)"/>
<path d="M0 0 C2.03833424 1.2739589 4.03852126 2.61061923 6 4 C6 4.66 6 5.32 6 6 C6.66 6.66 7.32 7.32 8 8 C7.01 8 6.02 8 5 8 C4.34 6.68 3.68 5.36 3 4 C2.34 4 1.68 4 1 4 C1 3.34 1 2.68 1 2 C0.34 1.67 -0.32 1.34 -1 1 C-0.67 0.67 -0.34 0.34 0 0 Z " fill="#7E7E7E" transform="translate(46,350)"/>
<path d="M0 0 C2.29013653 3.4352048 2.17842973 4.985331 2 9 C1.01 9.495 1.01 9.495 0 10 C-0.19412181 8.52168779 -0.38012131 7.04230684 -0.5625 5.5625 C-0.66691406 4.73878906 -0.77132813 3.91507813 -0.87890625 3.06640625 C-0.91886719 2.38449219 -0.95882813 1.70257813 -1 1 C-0.67 0.67 -0.34 0.34 0 0 Z " fill="#1C1C1C" transform="translate(371,128)"/>
<path d="M0 0 C3 1 3 1 4.203125 2.77734375 C4.54859375 3.49019531 4.8940625 4.20304687 5.25 4.9375 C5.78367187 6.00291016 5.78367187 6.00291016 6.328125 7.08984375 C6.54984375 7.72019531 6.7715625 8.35054687 7 9 C6.67 9.66 6.34 10.32 6 11 C5.54625 10.195625 5.0925 9.39125 4.625 8.5625 C3.25274335 5.91143428 3.25274335 5.91143428 1 5 C0.375 2.4375 0.375 2.4375 0 0 Z " fill="#272727" transform="translate(353,58)"/>
<path d="M0 0 C0.66 0 1.32 0 2 0 C1.67 1.65 1.34 3.3 1 5 C0.01 5 -0.98 5 -2 5 C-2.12375 5.639375 -2.2475 6.27875 -2.375 6.9375 C-2.58125 7.618125 -2.7875 8.29875 -3 9 C-3.99 9.495 -3.99 9.495 -5 10 C-3.85569823 6.12697862 -2.76679902 2.99736561 0 0 Z " fill="#424242" transform="translate(359,339)"/>
<path d="M0 0 C0.66 0 1.32 0 2 0 C2 0.66 2 1.32 2 2 C2.66 2 3.32 2 4 2 C4 2.66 4 3.32 4 4 C4.66 4 5.32 4 6 4 C6.33 4.99 6.66 5.98 7 7 C5.35 6.67 3.7 6.34 2 6 C1.34 4.02 0.68 2.04 0 0 Z " fill="#595959" transform="translate(356,60)"/>
<path d="M0 0 C0 0.66 0 1.32 0 2 C-0.99 2 -1.98 2 -3 2 C-3.2475 2.639375 -3.495 3.27875 -3.75 3.9375 C-5 6 -5 6 -7.125 6.75 C-8.053125 6.87375 -8.053125 6.87375 -9 7 C-8.67 6.34 -8.34 5.68 -8 5 C-7.34 5 -6.68 5 -6 5 C-6 4.01 -6 3.02 -6 2 C-2.25 0 -2.25 0 0 0 Z " fill="#585858" transform="translate(67,39)"/>
<path d="M0 0 C0.80824219 0.19464844 1.61648437 0.38929688 2.44921875 0.58984375 C3.06410156 0.74582031 3.67898437 0.90179688 4.3125 1.0625 C4.3125 1.3925 4.3125 1.7225 4.3125 2.0625 C2.8754191 2.11672947 1.43774538 2.15539723 0 2.1875 C-0.80050781 2.21070313 -1.60101563 2.23390625 -2.42578125 2.2578125 C-4.6875 2.0625 -4.6875 2.0625 -7.6875 0.0625 C-4.39053895 -1.03648702 -3.28255097 -0.80874444 0 0 Z " fill="#2B2B2B" transform="translate(138.6875,374.9375)"/>
<path d="M0 0 C2.1640625 0.2421875 2.1640625 0.2421875 4.625 0.875 C5.44226563 1.07867187 6.25953125 1.28234375 7.1015625 1.4921875 C8.04128906 1.74355469 8.04128906 1.74355469 9 2 C9 2.33 9 2.66 9 3 C4.58937864 4.0257259 2.07369424 4.03684712 -2 2 C-1.34 1.34 -0.68 0.68 0 0 Z " fill="#171717" transform="translate(101,371)"/>
<path d="M0 0 C0.33 0.99 0.66 1.98 1 3 C-0.32 3.33 -1.64 3.66 -3 4 C-3 4.66 -3 5.32 -3 6 C-4.32 6.33 -5.64 6.66 -7 7 C-5.66667905 3.00003714 -3.5042173 2.16217663 0 0 Z " fill="#191919" transform="translate(336,359)"/>
<path d="M0 0 C1.32 0 2.64 0 4 0 C4.66 1.98 5.32 3.96 6 6 C5.01 6.495 5.01 6.495 4 7 C4 6.01 4 5.02 4 4 C3.01 3.67 2.02 3.34 1 3 C0.67 2.01 0.34 1.02 0 0 Z " fill="#737373" transform="translate(40,344)"/>
<path d="M0 0 C0 1.98 0 3.96 0 6 C-0.66 6 -1.32 6 -2 6 C-2 6.66 -2 7.32 -2 8 C-2.66 7.67 -3.32 7.34 -4 7 C-3.625 4.0625 -3.625 4.0625 -3 1 C-1 0 -1 0 0 0 Z " fill="#5A5A5A" transform="translate(364,334)"/>
<path d="M0 0 C3 0 3 0 5 1 C5 1.99 5 2.98 5 4 C3.35 4 1.7 4 0 4 C-0.33 3.01 -0.66 2.02 -1 1 C-0.67 0.67 -0.34 0.34 0 0 Z " fill="#252525" transform="translate(76,367)"/>
<path d="M0 0 C0.66 0 1.32 0 2 0 C6 4.47058824 6 4.47058824 6 7 C5.34 7 4.68 7 4 7 C4 6.34 4 5.68 4 5 C2.68 4.34 1.36 3.68 0 3 C0 2.01 0 1.02 0 0 Z " fill="#1F1F1F" transform="translate(49,348)"/>
<path d="M0 0 C0.66 0 1.32 0 2 0 C1.40312566 3.34249629 0.26396123 5.46436342 -2 8 C-2.66 8 -3.32 8 -4 8 C-2.66666667 5.33333333 -1.33333333 2.66666667 0 0 Z " fill="#838383" transform="translate(357,344)"/>
<path d="M0 0 C0.66 0 1.32 0 2 0 C2.66 2.64 3.32 5.28 4 8 C2 6.25 2 6.25 0 4 C0 2.68 0 1.36 0 0 Z " fill="#555555" transform="translate(368,83)"/>
</svg>
